<?xml version="1.0" standalone="no"?>
<!DOCTYPE svg PUBLIC "-//W3C//DTD SVG 20010904//EN"
 "http://www.w3.org/TR/2001/REC-SVG-20010904/DTD/svg10.dtd">
<svg version="1.0" xmlns="http://www.w3.org/2000/svg"
 width="192.000000pt" height="192.000000pt" viewBox="0 0 192.000000 192.000000"
 preserveAspectRatio="xMidYMid meet">
<metadata>
Created by potrace 1.14, written by Peter Selinger 2001-2017
</metadata>
<g transform="translate(0.000000,192.000000) scale(0.100000,-0.100000)"
fill="#000000" stroke="none">
<path d="M869 1916 c-2 -2 -25 -6 -50 -9 -149 -18 -323 -93 -454 -197 -184
-146 -315 -369 -352 -600 -9 -56 -9 -240 0 -300 7 -41 11 -60 32 -140 4 -14
16 -45 27 -70 11 -24 24 -55 29 -68 21 -56 108 -173 183 -248 182 -182 392
-272 651 -280 271 -7 508 86 702 277 188 185 284 427 278 699 -5 261 -95 472
-279 656 -143 143 -329 240 -520 270 -40 7 -242 15 -247 10z"/>
</g>
</svg>
