<svg id="Layer_1" data-name="Layer 1" xmlns="http://www.w3.org/2000/svg" viewBox="0 0 270 152.88681"><defs><style>.cls-1{fill:#fff;}</style></defs><title>logo-web</title><path class="cls-1" d="M.0015,60.3948a13.71509,13.71509,0,0,1,6.863-11.44539c3.52372,8.12985,12.599,10.96106,20.84753,11.08734,8.42212.12894,15.93109-2.53519,15.97628-5.48723.105-6.85884-29.43845-.19023-29.16862-17.81564C14.8174,17.2848,44.3893,3.14753,61.31942,3.40672c6.85975.105,12.068,2.63,11.60129,8.08079-.62712,7.32452-9.59542,10.3583-7.90322,20.65006C55.72623,33.53965,50.682,21.43731,54.67922,17.37415,47.006,19.428,33.89309,24.95911,33.7934,31.47077c-.1409,9.20329,27.34018,6.75811,27.12218,20.9975C60.75075,63.23483,41.72979,74.66864,22.8883,74.38018,14.90108,74.2579-.17264,71.769.0015,60.3948ZM85.80314,35.74065c3.55381-.28059,7.76171-.9504,10.47326-2.90706,5.544-4.00051,7.40117-9.68765,6.82253-11.04521-.50309-1.18031-11.67466,4.58672-11.04133,2.49757.93177-4.15392,4.99011-8.26088,5.04593-11.9073C97.178,7.51616,91.149,4.12386,86.81309,3.797a115.32607,115.32607,0,0,1-9.615,20.956c-1.71682.93588-3.21267-.00358-5.52543-1.80724-1.04209-.016-2.5955,4.80928-2.61677,6.199a7.10766,7.10766,0,0,0,3.289,6.3899c-2.70148,6.21228-7.27,15.3478-7.38828,23.07553-.10766,7.03244,4.21757,13.78639,10.73014,13.88609a12.2193,12.2193,0,0,0,3.74386-.63814c-1.61285-2.45651-2.25672-5.76637-2.2009-9.41278C77.364,53.676,81.52735,42.71019,85.80314,35.74065Zm22.087,40.71561c-.11964,7.81453,3.81906,11.5221,8.67973,11.59652,6.07949.09307,13.54461-5.43764,16.2142-15.29768a20.79579,20.79579,0,0,1-7.05811,1.62922c-2.953-.04521-5.09988-1.64172-5.02412-6.5901.12363-8.07493,6.51047-16.83533,6.557-19.87508.05183-3.386-3.1973-6.64894-7.36541-6.71276a9.11466,9.11466,0,0,0-2.61241.3941c-.3026,7.69285-9.68822,18.09464-14.85684,17.48983-1.2942-.15144-1.81169-.81-1.79043-2.19878.08241-5.38328,9.31375-18.35605,21.64268-18.1673a18.944,18.944,0,0,1,5.19771.86185,11.46632,11.46632,0,0,0,2.79268-6.55816c.05981-3.90681-3.46259-6.39255-8.84587-6.475-14.24031-.218-35.55521,13.61158-35.85828,33.40785-.12628,8.24852,4.39648,13.44185,10.47415,13.5349,3.99452.06115,8.63027-2.12606,13.13812-7.18114A51.88189,51.88189,0,0,0,107.89016,76.45626Zm69.232-73.56911c-11.02917.00258-18.80053,8.95269-27.60759,22.6265-.76829-6.52495-10.21559-6.82946-10.21559-6.82946a6.35968,6.35968,0,0,1,.23206,1.91447c-.15155,9.89859-12.28944,36.41054-12.3785,42.22782s4.9493,7.42278,11.87364,4.52449c3.23291-27.57643,25.59725-51.98933,43.26143-52.74374C184.41327,11.86068,187.21679,2.8848,177.12215,2.88715ZM37.096,104.7406c.1007-6.4888,11.19111-19.416,34.25488-13.90814,3.5957-5.63363,5.859-12.24814-6.71613-14.13441C44.6914,73.68,18.13263,90.55584,17.83053,110.02208c-.2763,17.63033,29.2752,10.94044,29.1745,17.8064-.05035,2.94253-7.56963,5.60844-15.97063,5.48272-8.24873-.12572-17.32884-2.94253-20.84963-11.09117a13.74927,13.74927,0,0,0-6.866,11.46849C3.1432,145.05631,18.20754,147.54616,26.20575,147.672c18.8381.27662,37.85181-11.1667,38.02742-21.93106C64.43457,111.506,36.9695,113.94551,37.096,104.7406Zm85.62912,4.70308a18.96667,18.96667,0,0,1,5.20565.88019,11.64828,11.64828,0,0,0,2.79256-6.56417c.05035-3.89825-3.47044-6.38809-8.85293-6.48879-14.23541-.2011-35.56274,13.63152-35.86484,33.42473-.12526,8.24919,4.40129,13.43012,10.48744,13.53082,3.97393.0502,8.627-2.13786,13.12895-7.19307-.754,3.39537-1.88626,6.99183-1.2833,10.16078,2.61573,13.908,19.92-2.03716,17.83234-2.08751-2.94238-.05035-5.105-1.63483-5.03-6.58934.12526-8.07328,6.51351-16.8255,6.56386-19.86873.05035-3.39522-3.19413-6.63954-7.36823-6.71507a9.57336,9.57336,0,0,0-2.61572.40234c-1.233,6.91631-10.33762,17.55495-14.8396,17.47943-1.30664-.02518-1.81013-.80483-1.81013-2.18806C101.17182,122.24505,110.40175,109.26761,122.72511,109.44368Zm-27.276-4.46149c3.67183-2.48984,6.46439-9.20491,3.47166-10.03491-.40279-.12572-7.14349,2.01214-7.59541,2.03716.603-4.2,4.30059-10.22117,4.04884-13.868-.35245-4.854-6.64-7.721-10.99094-7.696.11535,4.09756-4.32515,15.82977-7.82137,23.27414-8.12347,2.515-11.2169-2.96771-14.81382-.50288-2.46467,2.38915-2.96817,13.405,10.89024,11.66958-2.18836,6.41343-5.9609,15.895-5.43284,23.61609.47771,7.017,5.35793,13.37993,11.84688,12.92724a11.86312,11.86312,0,0,0,3.67183-.95572c-1.81135-2.31377-2.71642-5.55825-2.96816-9.17989-.6042-8.75222,2.61572-20.04464,6.31211-27.33827A28.60411,28.60411,0,0,0,95.44906,104.98219Zm89.86738,30.90924c.27631-18.48535,20.09545-41.05985,20.09545-51.90877,0-4.603-5.80538-7.39043-10.16442-8.16726-.62368-.11115-1.22292-.27782-1.22292-.27782,0,10.09956-21.33357,44.78586-21.535,58.16579-.1007,6.514,4.04884,12.65063,10.48744,12.75118a10.81,10.81,0,0,0,3.92358-.62876C185.29065,143.36112,185.2403,139.89038,185.31644,135.89143Zm46.98071-11.35763c-6.61421,7.82168-15.59239,12.09725-21.70433,11.9967-4.07463-.05034-6.8414-2.01213-6.76526-6.26253.12526-8.85277,9.20537-18.00748,13.37947-17.93211,1.23295,0,1.987.88035,1.9624,2.89233-.05035,2.76647-2.96817,6.6397-6.01124,6.58935a4.2154,4.2154,0,0,1-3.19413-1.78572c-.95541.42766-3.09343,3.24447-3.118,5.75949-.05157,3.21915,2.08644,4.72826,5.13074,4.77845,7.11648.1007,19.139-7.9474,19.36493-21.5034.07491-5.45755-3.06886-9.85884-11.06585-9.98456-13.63122-.20124-29.37589,19.08893-29.60185,33.324-.12648,8.24919,4.90356,14.83854,18.71161,15.065a42.2146,42.2146,0,0,0,20.17052-4.77861C246.25626,134.116,237.2265,118.72411,232.29715,124.5338ZM165.114,63.58579l7.02753,1.96a.53783.53783,0,0,0,.64356-.7185l-2.719-6.77013a.53785.53785,0,0,1,.051-.49794l4.03566-6.07792a.53783.53783,0,0,0-.48446-.83409l-7.279.49381a.53783.53783,0,0,1-.4578-.20241l-4.53335-5.71631a.53782.53782,0,0,0-.943.203l-1.7797,7.07533a.53782.53782,0,0,1-.334.37284l-6.83743,2.545a.53783.53783,0,0,0-.09833.95955l6.17908,3.879a.53783.53783,0,0,1,.25139.43284l.3076,7.28923a.53783.53783,0,0,0,.8822.39l5.59858-4.678A.53783.53783,0,0,1,165.114,63.58579Zm9.88219,44.77816c-.23123,14.48885-16.856,38.42242-34.35657,38.13937-8.07993-.12866-12.06957-6.408-11.96658-14.0514.23123-14.74611,22.8779-46.98352,22.75625-59.31254,0,0,11.03058,1.38589,11.48583,9.16895.239,4.0857-5.6179,11.11877-8.37763,20.59981,3.78238-2.95943,7.2054-5.30141,10.57677-5.24989C172.21655,97.76114,175.07275,102.239,174.99617,108.364Zm-15.38691,4.04045c0-.33459-.07669-1.05509-.69485-1.05509-3.83394-.07727-16.31569,13.87109-16.39354,19.19824-.02514,1.2354.69485,1.9559,2.18765,1.98167C151.99178,132.65785,159.53257,116.5992,159.60926,112.4044ZM267.88914,39.43812c-6.5704.29082-30.50741-1.19656-36.52571-13.7046,7.316,2.474,12.15663-.7,14.36017-3.29479.9867-1.162,1.13627-2.25569-.11126-2.42286-3.64138-.48792-9.45778-1.537-18.76314-9.808-28.47272-25.30794-44.56259,4.40976-37.10623,4.4325,5.97451.01822,10.11032-3.46952,17.68235-10.0125,1.74321-1.50631,1.82115,4.00426.31327,7.49114a35.35312,35.35312,0,0,1-2.574,4.611s4.84888,2.85877,6.66526,5.54973,2.90313,6.87171,4.243,8.5259,7.72746,6.20476,10.22424,8.67645c4.03768,3.9971,7.108,5.7254,7.8174,7.37546,1.37254,3.19272.31744,7.40064-.77083,9.82728-.77975,1.73871-.3643,2.84756-1.4646,4.11978-1.2,1.38749-4.02765,1.18005-4.02765,1.18005a1.95593,1.95593,0,0,1-.75877,1.39687c-.8817.54642-1.3656.34142-2.16621.51562a4.37562,4.37562,0,0,1-2.98481.31994c-2.96664-.88335-3.25-4.21247-6.83461-5.267-2.62046-.77085-7.25535-2.46735-8.67867-2.6011-1.40939-.13244-6.98657,1.00561-12.26791-.9153-6.93583-2.52268-8.86186-7.7544-10.368-7.68679-.65091.02922-1.19295,1.48963-1.03831,3.24258.60188,6.82275,9.29975,23.23917,32.022,26.31979,24.52349,3.32482,40.43538-11.70736,36.21811-12.37348-8.78157-1.38719-10.60674-5.457-10.60674-5.457,18.17009.20232,28.94633-13.3027,28.97675-18.237C269.37307,39.82119,268.87,39.38974,267.88914,39.43812ZM259.51747,26.497l3.97723,3.64729a.4962.4962,0,0,0,.82963-.322l.47573-5.37539a.49617.49617,0,0,1,.25009-.38821l4.69781-2.6555a.49619.49619,0,0,0-.04984-.88851l-4.96528-2.11353a.49619.49619,0,0,1-.29194-.35782l-1.07382-5.28847a.4962.4962,0,0,0-.86043-.22717l-3.54444,4.06915a.49619.49619,0,0,1-.43051.16707l-5.36147-.613a.49619.49619,0,0,0-.48194.74811l2.7747,4.6284a.49622.49622,0,0,1,.02586.46108l-2.23975,4.90964a.4962.4962,0,0,0,.56258.68953l5.25929-1.20864A.49618.49618,0,0,1,259.51747,26.497Z"/></svg>