<svg id="Layer_1" data-name="Layer 1" xmlns="http://www.w3.org/2000/svg" viewBox="0 0 59.5 55.65481"><defs><style>.cls-1{fill:none;}.cls-2{fill:#fff;}.cls-3{fill:#2a9bb9;}</style></defs><title>icon-hcc</title><path class="cls-1" d="M41.67972,34.4304a9.03053,9.03053,0,0,0-.05518-1.85492,37.60849,37.60849,0,0,1-.52,4.60785A13.491,13.491,0,0,0,41.67972,34.4304Z"/><path class="cls-2" d="M41.62454,32.57548a4.13664,4.13664,0,0,0-.34717-1.25934,18.27357,18.27357,0,0,0-4.39966-2.03571,10.79929,10.79929,0,0,1-9.16088,16.48883c8.33233.004,12.24261-5.03985,13.21331-7.96118.04615-.17926.10547-.3855.17438-.62475A9.18746,9.18746,0,0,0,41.62454,32.57548Z"/><path class="cls-2" d="M16.94534,33.87669a10.77041,10.77041,0,0,1,.79859-3.12177,22.43987,22.43987,0,0,0-7.12964,5.54755L9.05276,39.96531a33.5293,33.5293,0,0,0,18.66407,5.804A10.81567,10.81567,0,0,1,16.94534,33.87669Z"/><path class="cls-2" d="M35.66305,32.1124a8.464,8.464,0,0,0-1.40814-2.50476,8.55538,8.55538,0,0,0-1.04645-1.06585c-.25994-.02216-.52246-.04-.78949-.04889l-.46-.01563c-.62158-.02154-1.29626-.04376-2.00842-.05432a29.73691,29.73691,0,0,0-8.6261.98157A8.46422,8.46422,0,1,0,35.66305,32.1124Zm-2.9887,3.35242a5.06369,5.06369,0,1,1-3.33216-5.21393,3.37536,3.37536,0,0,0,.28119,1.47455,1.939,1.939,0,1,0,1.73743,1.74823,3.3783,3.3783,0,0,0,1.03564.29016c.04694.00476.09174-.00281.13843,0A4.95778,4.95778,0,0,1,32.67435,35.46482Z"/><path class="cls-3" d="M32.39645,33.76383a3.3783,3.3783,0,0,1-1.03564-.29016,1.92612,1.92612,0,1,1-1.73743-1.74823,3.37536,3.37536,0,0,1-.28119-1.47455,5.07322,5.07322,0,1,0,3.19269,3.51294C32.48819,33.761,32.44339,33.76859,32.39645,33.76383Z"/><path class="cls-3" d="M40.93014,37.80808a5.75169,5.75169,0,0,0,.17438-.62475C41.03561,37.42258,40.97629,37.62882,40.93014,37.80808Z"/><path class="cls-3" d="M51.38968,29.86106c-.2334-.2998-5.91211-7.33935-22.30176-6.71142C12.6221,23.78,10.167,35.95237,10.14407,36.07542a.27067.27067,0,0,0,.47022.227,22.43987,22.43987,0,0,1,7.12964-5.54755A10.80451,10.80451,0,0,0,26.61136,45.7136a10.92471,10.92471,0,0,0,1.10547.05566,10.79458,10.79458,0,0,0,9.16088-16.48883,18.27357,18.27357,0,0,1,4.39966,2.03571,4.13664,4.13664,0,0,1,.34717,1.25934,9.03053,9.03053,0,0,1,.05518,1.85492,13.491,13.491,0,0,1-.5752,2.75293,5.75169,5.75169,0,0,1-.17438.62475c-.14013.54456-.15594.833.07184.98657a.36264.36264,0,0,0,.207.0625,1.08179,1.08179,0,0,0,.58106-.2832c1.19043-.93262,2.17383-5.34326,2.417-6.51611a32.84152,32.84152,0,0,0,3.52832-.08154c2.77832-.1792,3.64453-1.75489,3.67969-1.82178A.27177.27177,0,0,0,51.38968,29.86106ZM36.12015,35.81272a8.46617,8.46617,0,1,1-14.79566-6.4082,29.73691,29.73691,0,0,1,8.6261-.98157c.71216.01056,1.38684.03278,2.00842.05432l.46.01563c.267.00885.52955.02673.78949.04889a8.55538,8.55538,0,0,1,1.04645,1.06585,8.537,8.537,0,0,1,1.86524,6.20508Z"/><path class="cls-3" d="M12.34012,19.63108c1.018.57361,17.0653-5.00568,22.12207-6.19537s14.502.80267,17.894,4.26294c0,0-.66864-4.517-6.78632-7.79035S31.51828,6.73911,23.17557,8.82786,10.96347,11.84879,10.72482,14.045,11.06552,18.91288,12.34012,19.63108Z"/></svg>