<svg id="Layer_1" data-name="Layer 1" xmlns="http://www.w3.org/2000/svg" viewBox="0 0 59.5 55.65481"><defs><style>.cls-1{fill:#fff;}.cls-2{fill:#2e9bb9;}</style></defs><title>icon-hcc</title><path class="cls-1" d="M17.768,23.015a13.8829,13.8829,0,0,0,.04,2.21942c.85047,7.72608,4.96887,15.52014,12.25611,15.52014,6.29309,0,11.3338-6.37664,12.25805-15.50848.03131-.31048-.00342-.59857.00849-.90271-5.65863.16675-17.76691-10.3255-17.76691-10.3255C23.04025,17.82676,19.39706,21.49754,17.768,23.015Z"/><path class="cls-2" d="M46.99533,14.30979c-6.20233-11.7691-24.10779-12.54651-32.0625-2.375C2.84738,27.3881,17.15054,49.15147,17.15054,49.15147s5.26831-.66285,6.83869-2.299c1.00341-1.04535,1.27331-3.0492,1.33905-4.36689a11.977,11.977,0,0,0,4.73584,1.03009,11.798,11.798,0,0,0,3.69146-.65948,6.53011,6.53011,0,0,0,1.349,3.99628c1.57038,1.63616,7.0802,2.299,7.0802,2.299S55.25863,29.9896,46.99533,14.30979ZM42.32217,25.24607c-.92425,9.13184-5.965,15.50848-12.25805,15.50848-7.28724,0-11.40564-7.79406-12.25611-15.52014a13.8829,13.8829,0,0,1-.04-2.21942c1.62909-1.51745,5.27228-5.18823,6.79578-8.99713,0,0,12.10828,10.49225,17.76691,10.3255C42.31875,24.6475,42.35348,24.93559,42.32217,25.24607Z"/></svg>