<svg id="Layer_1" data-name="Layer 1" xmlns="http://www.w3.org/2000/svg" viewBox="0 0 59.5 55.65481"><defs><style>.cls-1{fill:none;}.cls-2{fill:#fff;}.cls-3{fill:#2e9bb9;}</style></defs><title>icon-hcc</title><path class="cls-1" d="M29.86335,15.90812c.0308-.019.06023-.03978.09251-.05675C29.92333,15.86841,29.89433,15.88892,29.86335,15.90812Z"/><path class="cls-1" d="M30.32491,15.70687c.01208-.003.02516-.00322.0373-.006C30.35007,15.70371,30.337,15.70383,30.32491,15.70687Z"/><path class="cls-1" d="M51.26376,18.04056a1.24894,1.24894,0,0,1,.38628-.18192A1.24494,1.24494,0,0,0,51.26376,18.04056Z"/><path class="cls-1" d="M50.897,18.44257a1.051,1.051,0,0,1,.27964-.33633A1.046,1.046,0,0,0,50.897,18.44257Z"/><path class="cls-1" d="M52.02163,17.80938a1.47723,1.47723,0,0,0-.35616.04331,1.51687,1.51687,0,0,1,.47079-.03017C52.09815,17.81979,52.05924,17.80938,52.02163,17.80938Z"/><path class="cls-1" d="M29.55255,16.16285c.02522-.02788.05341-.05267.0808-.07838C29.60577,16.11037,29.578,16.13478,29.55255,16.16285Z"/><path class="cls-1" d="M28.46913,12.38847c.03669.00688.07331.01208.11005.02125C28.54219,12.40049,28.50606,12.39535,28.46913,12.38847Z"/><path class="cls-1" d="M49.53662,14.28526c-.01505,0-.02875.00484-.04368.00521.03618-.00093.07287.001.10955.00235C49.58074,14.292,49.55825,14.28526,49.53662,14.28526Z"/><path class="cls-1" d="M48.48165,14.71937c.02169-.02367.04585-.04467.06934-.06648C48.52732,14.67488,48.50346,14.69552,48.48165,14.71937Z"/><path class="cls-1" d="M30.79,15.64955c-.01822,0-.03476.00583-.05285.00632.04306-.00117.08674.00093.13043.00255C30.842,15.65742,30.81547,15.64955,30.79,15.64955Z"/><path class="cls-1" d="M48.74685,14.50418c.02664-.01642.0523-.03414.0803-.0487C48.7989,14.47016,48.77374,14.48763,48.74685,14.50418Z"/><path class="cls-1" d="M23.10851,12.81979c.02665-.01648.05211-.03445.08012-.04907C23.16044,12.78546,23.13534,12.80318,23.10851,12.81979Z"/><path class="cls-1" d="M49.866,14.32294c.03631.00681.0725.01214.10887.02131C49.93826,14.33508,49.90245,14.32982,49.866,14.32294Z"/><path class="cls-1" d="M49.14167,14.33329l.02634-.00416C49.15939,14.33112,49.15022,14.33112,49.14167,14.33329Z"/><path class="cls-1" d="M19.967,12.95964a1.70268,1.70268,0,0,1,.49477.14282A1.69444,1.69444,0,0,0,19.967,12.95964Z"/><path class="cls-1" d="M24.22954,12.636c.03687.00688.07361.01227.11054.02156C24.3029,12.64822,24.26665,12.64289,24.22954,12.636Z"/><path class="cls-1" d="M19.73354,12.93287a1.47129,1.47129,0,0,0-.3556.04313,1.51752,1.51752,0,0,1,.47153-.02987C19.811,12.94334,19.77152,12.93287,19.73354,12.93287Z"/><path class="cls-1" d="M23.90182,12.59852c-.01549,0-.0295.005-.04492.00539.03674-.001.074.00081.11128.00223C23.94625,12.60534,23.92357,12.59852,23.90182,12.59852Z"/><path class="cls-1" d="M22.84282,13.03715c.02168-.024.04591-.04517.06952-.06729C22.88861,12.99211,22.86469,13.013,22.84282,13.03715Z"/><path class="cls-1" d="M23.50408,12.64741c.0101-.00254.02107-.00266.03123-.005C23.52509,12.64475,23.51418,12.64487,23.50408,12.64741Z"/><path class="cls-1" d="M28.145,12.35135c-.0158,0-.03012.00509-.04585.00552.03693-.001.07423.00062.11159.002C28.189,12.35805,28.16657,12.35135,28.145,12.35135Z"/><path class="cls-1" d="M27.35437,12.57312c.026-.01624.05081-.0339.07807-.04833C27.405,12.53929,27.38052,12.55682,27.35437,12.57312Z"/><path class="cls-1" d="M52.25368,17.836a1.69239,1.69239,0,0,1,.49359.14214A1.68573,1.68573,0,0,0,52.25368,17.836Z"/><path class="cls-1" d="M18.97679,13.16418a1.24453,1.24453,0,0,1,.3882-.1831A1.23773,1.23773,0,0,0,18.97679,13.16418Z"/><path class="cls-1" d="M27.74678,12.40092c.01183-.003.02478-.00328.0368-.006C27.7715,12.39764,27.75867,12.39789,27.74678,12.40092Z"/><path class="cls-1" d="M18.61121,13.56749A1.04581,1.04581,0,0,1,18.89,13.23,1.0414,1.0414,0,0,0,18.61121,13.56749Z"/><path class="cls-1" d="M27.08954,12.792c.02144-.02392.04536-.04523.06865-.06735C27.13471,12.74686,27.1111,12.76793,27.08954,12.792Z"/><path class="cls-1" d="M31.17243,15.6933c.04313.00806.08607.01431.12919.02516C31.25819,15.70755,31.21581,15.70136,31.17243,15.6933Z"/><path class="cls-1" d="M46.2953,11.04822c.02628-.01629.05137-.03408.07888-.04864C46.34642,11.0142,46.32176,11.0318,46.2953,11.04822Z"/><path class="cls-1" d="M42.13756,10.76524c.01146-.00291.02392-.003.03544-.00564C42.16142,10.76226,42.149,10.76233,42.13756,10.76524Z"/><path class="cls-1" d="M46.68777,10.87652c.01091-.00278.02281-.00291.03384-.00545C46.71058,10.87361,46.69874,10.87374,46.68777,10.87652Z"/><path class="cls-1" d="M42.60184,10.70817c-.01809,0-.03451.00583-.05254.00632.043-.00118.08656.00093.13012.00254C42.65377,10.716,42.62725,10.70817,42.60184,10.70817Z"/><path class="cls-1" d="M42.98465,10.752c.04294.008.08575.01431.12876.02509C43.07016,10.76623,43.02784,10.7601,42.98465,10.752Z"/><path class="cls-1" d="M46.03122,11.2654c.0215-.02392.04548-.04511.06884-.06711C46.07658,11.22048,46.05284,11.24136,46.03122,11.2654Z"/><path class="cls-1" d="M41.67606,10.96618c.03086-.019.06042-.03984.09276-.05682C41.73623,10.92647,41.70717,10.947,41.67606,10.96618Z"/><path class="cls-1" d="M41.36557,11.22011c.02522-.02783.05335-.05242.08067-.07808C41.41873,11.16781,41.39091,11.19216,41.36557,11.22011Z"/><path class="cls-1" d="M47.08415,10.82751c-.01562,0-.02981.005-.0453.00545.03669-.001.07386.00069.111.00205C47.12814,10.8342,47.10571,10.82751,47.08415,10.82751Z"/><path class="cls-1" d="M47.409,10.86469c.03655.00681.07293.01208.10955.02125C47.48176,10.87671,47.44576,10.87157,47.409,10.86469Z"/><path class="cls-2" d="M32.53939,30.24023c-.01624,0-.03191.00551-.04815.00595.03427-.00087.06853.00043.1028.00142C32.5757,30.24711,32.55773,30.24023,32.53939,30.24023Z"/><path class="cls-2" d="M33.523,30.4957c.02609.01376.053.026.07851.04083C33.57571,30.52154,33.54938,30.50964,33.523,30.4957Z"/><path class="cls-2" d="M33.06532,30.31093c.01023.00272.02.00743.03018.01028C33.08521,30.3183,33.07561,30.31365,33.06532,30.31093Z"/><path class="cls-2" d="M31.492,27.99539a4.22277,4.22277,0,0,1,1.04735-.13105,4.52658,4.52658,0,0,1,3.86509,2.21491,3.76306,3.76306,0,0,1-1.29978,5.18514l-6.93949,4.08643-1.4428,2.08671,12.528,6.00714,3.207-8.533a20.03237,20.03237,0,0,0,3.51941-3.44288c.674-1.10894,5.88885-12.1848,7.56654-15.75656a1.36454,1.36454,0,0,0-.79609-1.73415,1.69239,1.69239,0,0,0-.49359-.14214c-.03935-.00576-.07845-.01059-.11742-.01344a1.51687,1.51687,0,0,0-.47079.03017l-.01543.006a1.24894,1.24894,0,0,0-.38628.18192q-.04525.03085-.08711.06568a1.051,1.051,0,0,0-.27964.33633l-3.66849,7.41908-.4558-.2007,4.44036-9.26053a1.509,1.509,0,0,0-.87442-1.92865,1.90583,1.90583,0,0,0-.36384-.12752c-.03637-.00917-.07256-.0145-.10887-.02131a1.80466,1.80466,0,0,0-.26346-.03012c-.03668-.00136-.07337-.00328-.10955-.00235a1.6315,1.6315,0,0,0-.32493.03866l-.02634.00416a1.43191,1.43191,0,0,0-.31452.12219c-.028.01456-.05366.03228-.0803.0487a1.24406,1.24406,0,0,0-.19586.14871c-.02349.02181-.04765.04281-.06934.06648a1.15065,1.15065,0,0,0-.191.27146l-4.53243,9.29592-.46615-.22356,5.45109-11.12877a1.4947,1.4947,0,0,0-.86332-1.92183,1.89357,1.89357,0,0,0-.36124-.12665c-.03662-.00917-.073-.01444-.10955-.02125a1.7786,1.7786,0,0,0-.25913-.02968c-.03718-.00136-.07435-.003-.111-.00205a1.62071,1.62071,0,0,0-.31724.03811c-.011.00254-.02293.00267-.03384.00545a1.41836,1.41836,0,0,0-.31359.12306c-.02751.01456-.0526.03235-.07888.04864a1.24125,1.24125,0,0,0-.19524.15007c-.02336.022-.04734.04319-.06884.06711a1.13992,1.13992,0,0,0-.18837.27307L40.52976,22.73868l-.46615-.2235,4.4947-9.33533a1.76137,1.76137,0,0,0-1.02-2.25388,2.2313,2.2313,0,0,0-.42487-.1489c-.043-.01078-.08582-.0171-.12876-.02509a2.0901,2.0901,0,0,0-.30523-.035c-.04356-.00161-.08712-.00372-.13012-.00254a1.90489,1.90489,0,0,0-.3763.04511c-.01152.00266-.024.00273-.03544.00564a1.67,1.67,0,0,0-.36874.14412c-.03234.017-.0619.0378-.09276.05682a1.45979,1.45979,0,0,0-.22982.17585c-.02732.02566-.05545.05025-.08067.07808a1.34366,1.34366,0,0,0-.22238.31978L34.81056,24.7467,36.65,28.64525l-.44737.16551-2.89018-6.375-2.78428,5.80669Z"/><path class="cls-2" d="M33.97909,30.81636c.02286.02119.0438.04424.06568.06642C34.02271,30.86035,34.0022,30.83773,33.97909,30.81636Z"/><path class="cls-2" d="M30.17911,16.12716a4.50739,4.50739,0,0,1,2.58941.84288,2.0496,2.0496,0,0,0-1.04208-1.10269,2.22863,2.22863,0,0,0-.42482-.14889c-.04312-.01085-.08606-.0171-.12919-.02516a2.08143,2.08143,0,0,0-.30485-.03488c-.04369-.00162-.08737-.00372-.13043-.00255a1.90518,1.90518,0,0,0-.37494.045c-.01214.00279-.02522.003-.0373.006a1.6688,1.6688,0,0,0-.369.1445c-.03228.017-.06171.03773-.09251.05675a1.45405,1.45405,0,0,0-.23.17635c-.02739.02571-.05558.0505-.0808.07838l-.00886.01283A4.2937,4.2937,0,0,1,30.17911,16.12716Z"/><path class="cls-2" d="M30.71081,18.58094c.02745.00737.05509.0135.08223.022C30.76553,18.59438,30.73857,18.58843,30.71081,18.58094Z"/><path class="cls-2" d="M31.72638,19.18526c.01561.01673.02856.0355.0435.05279C31.75476,19.22058,31.74218,19.20217,31.72638,19.18526Z"/><path class="cls-2" d="M27.88861,31.37173l-5.51429,1.41348-.15106-.45245,4.19151-1.00664,1.12586-2.34794-.97492-6.70533L24.86564,25.833l-.46608-.2235L26.439,21.40134l-.14023-.96456a3.7316,3.7316,0,0,1,2.59425-4.099L29.806,14.454a1.49576,1.49576,0,0,0-.86536-1.91755,1.89656,1.89656,0,0,0-.36143-.12672c-.03674-.00917-.07336-.01437-.11005-.02125a1.77807,1.77807,0,0,0-.25838-.02962c-.03736-.00136-.07466-.003-.11159-.002a1.614,1.614,0,0,0-.31558.038c-.012.00273-.025.003-.0368.006a1.41787,1.41787,0,0,0-.31434.12387c-.02726.01443-.05205.03209-.07807.04833a1.23147,1.23147,0,0,0-.19618.15156c-.02329.02212-.04721.04343-.06865.06735a1.14038,1.14038,0,0,0-.18793.27456l-5.2644,11.21836-.46608-.22356L25.58144,14.707a1.51079,1.51079,0,0,0-.87758-1.92189,1.90673,1.90673,0,0,0-.36378-.12752c-.03693-.00929-.07367-.01468-.11054-.02156a1.79284,1.79284,0,0,0-.26136-.02987c-.03724-.00142-.07454-.00322-.11128-.00223a1.63681,1.63681,0,0,0-.32159.03848c-.01016.00236-.02113.00248-.03123.005a1.43377,1.43377,0,0,0-.31545.12331c-.028.01462-.05347.03259-.08012.04907a1.2414,1.2414,0,0,0-.19617.15007c-.02361.02212-.04784.04332-.06952.06729a1.15179,1.15179,0,0,0-.19029.27375l-4.44035,9.26048-.44192-.22975,3.48787-7.5057a1.36814,1.36814,0,0,0-.79634-1.73347,1.70268,1.70268,0,0,0-.49477-.14282c-.03935-.00576-.07845-.01066-.11755-.01351a1.51752,1.51752,0,0,0-.47153.02987l-.013.00508a1.24453,1.24453,0,0,0-.3882.1831q-.04517.03085-.08681.06586a1.04581,1.04581,0,0,0-.27877.33745C16.87664,17.11205,11.50567,28.113,11.063,29.33285a20.0303,20.0303,0,0,0-.48083,4.89981L5.93679,42.076l12.52795,6.00714,2.08472-7.00473,5.95924-3.50925,1.88465-2.72573Z"/><path class="cls-2" d="M31.257,18.81082c.026.01549.05118.032.07653.04845C31.30788,18.84254,31.28335,18.82643,31.257,18.81082Z"/><path class="cls-2" d="M30.17911,18.503a1.9004,1.9004,0,0,0-.28893.02193,1.89509,1.89509,0,0,1,.30362-.01976Z"/><path class="cls-2" d="M31.72638,19.18526a2.10361,2.10361,0,0,0-.39284-.326c-.02535-.01648-.0505-.033-.07653-.04845a2.19545,2.19545,0,0,0-.464-.20789c-.02714-.00849-.05478-.01462-.08223-.022a2.05139,2.05139,0,0,0-.517-.07578,1.89509,1.89509,0,0,0-.30362.01976,1.38053,1.38053,0,0,0-1.24024,1.57013l.73289,5.04108,2.64283-5.51168a1.86929,1.86929,0,0,0-.25578-.3864C31.75494,19.22076,31.742,19.202,31.72638,19.18526Z"/><path class="cls-2" d="M34.34683,31.267a1.93068,1.93068,0,0,0-.30206-.38423c-.02188-.02218-.04282-.04523-.06568-.06642a2.12877,2.12877,0,0,0-.3776-.27983c-.02553-.01487-.05242-.02707-.07851-.04083a2.19357,2.19357,0,0,0-.42748-.17449c-.01022-.00285-.02-.00756-.03018-.01028a2.06093,2.06093,0,0,0-.47128-.06333c-.03427-.001-.06853-.00229-.1028-.00142a1.83149,1.83149,0,0,0-.40932.05068l-1.8787.48158.618,4.25118,3.07786-1.81247A1.38049,1.38049,0,0,0,34.34683,31.267Z"/><path class="cls-2" d="M29.54369,16.17568a1.34067,1.34067,0,0,0-.21328.30758l-2.7647,5.78959.97492,6.70533,1.8422-3.842-.73289-5.04108a1.38053,1.38053,0,0,1,1.24024-1.57013,1.9004,1.9004,0,0,1,.28893-.02193l.01469.00217a2.04738,2.04738,0,0,1,.517.07578c.02776.00749.05472.01344.08223.022a2.18071,2.18071,0,0,1,.464.20789c.02634.01561.05087.03172.07653.04845a2.09443,2.09443,0,0,1,.39284.326c.0158.01691.02838.03532.0435.05279a1.86653,1.86653,0,0,1,.25832.38113l.7192-1.49986A1.44434,1.44434,0,0,0,32.76852,16.97a4.50739,4.50739,0,0,0-2.58941-.84288A4.2937,4.2937,0,0,0,29.54369,16.17568Z"/><polygon class="cls-2" points="27.889 31.372 28.393 34.843 26.509 37.569 30.821 35.03 30.203 30.778 27.889 31.372"/><path class="cls-2" d="M26.29877,20.43678l.14023.96456,2.454-5.06357A3.7316,3.7316,0,0,0,26.29877,20.43678Z"/><path class="cls-2" d="M31.33354,18.85927a2.10361,2.10361,0,0,1,.39284.326A2.09443,2.09443,0,0,0,31.33354,18.85927Z"/><path class="cls-2" d="M30.1938,18.50516a2.05139,2.05139,0,0,1,.517.07578A2.04738,2.04738,0,0,0,30.1938,18.50516Z"/><path class="cls-2" d="M30.793,18.60293a2.19545,2.19545,0,0,1,.464.20789A2.18071,2.18071,0,0,0,30.793,18.60293Z"/><path class="cls-2" d="M32.02566,19.62445l.00254-.00527a1.86653,1.86653,0,0,0-.25832-.38113A1.86929,1.86929,0,0,1,32.02566,19.62445Z"/><path class="cls-3" d="M53.77455,15.83581q-.03654-.01748-.07337-.03426a3.74977,3.74977,0,0,0-.33664-1.45538,4.15884,4.15884,0,0,0-1.99866-2.01669q-.06543-.03141-.13186-.06047a3.71725,3.71725,0,0,0-.20423-1.061A4.13329,4.13329,0,0,0,48.907,8.87024a4.24453,4.24453,0,0,0-1.82262-.41862,3.86521,3.86521,0,0,0-2.06571.58171,4.59192,4.59192,0,0,0-2.41678-.701,3.92278,3.92278,0,0,0-3.601,2.1804L34.96912,18.921a4.14068,4.14068,0,0,0-2.2154-5.19593,4.62271,4.62271,0,0,0-.48009-.19772,3.75362,3.75362,0,0,0-.18564-.803,4.13491,4.13491,0,0,0-2.12017-2.33023A4.244,4.244,0,0,0,28.145,9.97547a3.83449,3.83449,0,0,0-2.28573.7314q-.06339-.033-.12821-.06413a4.25932,4.25932,0,0,0-1.82925-.42011,3.84149,3.84149,0,0,0-2.34268.772c-.02317-.01171-.04659-.02317-.07008-.03445A4.08649,4.08649,0,0,0,19.7336,10.557a3.57087,3.57087,0,0,0-3.25643,1.96614c-3.25062,6.64256-7.21609,14.81033-7.64754,15.99926a18.28009,18.28009,0,0,0-.62353,5.05974L3.89259,40.86524a2.37587,2.37587,0,0,0,1.017,3.3531l12.52794,6.00708a2.37592,2.37592,0,0,0,3.3044-1.46461l1.81816-6.10925,1.797-1.05826a2.32638,2.32638,0,0,0,1.33808,1.98652L38.2232,49.587a2.37582,2.37582,0,0,0,3.25118-1.30648L44.45229,40.357a18.28,18.28,0,0,0,3.55479-3.65424C48.664,35.622,52.54973,27.416,55.69383,20.7223A3.74148,3.74148,0,0,0,53.77455,15.83581ZM20.54946,41.0784l-2.08472,7.00473L5.93679,42.076l4.64539-7.84333a20.0303,20.0303,0,0,1,.48083-4.89981c.44266-1.21985,5.81363-12.2208,7.5482-15.76536A1.0414,1.0414,0,0,1,18.89,13.23c.02826-.02367.05614-.04492.08681-.06586a1.23773,1.23773,0,0,1,.3882-.1831l.013-.00508a1.47129,1.47129,0,0,1,.3556-.04313c.038,0,.07745.01047.11593.01326.03972.00291.07746.00762.11755.01351a1.69444,1.69444,0,0,1,.49477.14282,1.36814,1.36814,0,0,1,.79634,1.73347l-3.48787,7.5057.44192.22975,4.44035-9.26048a1.14713,1.14713,0,0,1,.19029-.27375c.02187-.02416.04579-.045.06952-.06729a1.2433,1.2433,0,0,1,.19617-.15007c.02683-.01661.05193-.03433.08012-.04907a1.4308,1.4308,0,0,1,.31545-.12331c.0101-.00254.021-.00266.03123-.005a1.62726,1.62726,0,0,1,.32159-.03848c.01542-.00043.02943-.00539.04492-.00539.02175,0,.04443.00682.06636.00762a1.7846,1.7846,0,0,1,.26136.02987c.03711.00688.07336.01221.11054.02156a1.90217,1.90217,0,0,1,.36378.12752,1.51079,1.51079,0,0,1,.87758,1.92189l-4.41031,9.35441.46608.22356,5.2644-11.21836a1.137,1.137,0,0,1,.18793-.27456c.02156-.0241.04517-.04517.06865-.06735a1.22475,1.22475,0,0,1,.19618-.15156c.02615-.0163.05062-.03383.07807-.04833a1.41671,1.41671,0,0,1,.31434-.12387c.01189-.003.02472-.00328.0368-.006a1.61864,1.61864,0,0,1,.31558-.038c.01573-.00043.03-.00552.04585-.00552.02156,0,.044.0067.06574.0075a1.777,1.777,0,0,1,.25838.02962c.03693.00688.07306.012.11005.02125a1.891,1.891,0,0,1,.36143.12672A1.49576,1.49576,0,0,1,29.806,14.454L28.893,16.33777l-2.454,5.06357-2.03944,4.20812.46608.2235,1.70007-3.56011,2.7647-5.78959a1.34067,1.34067,0,0,1,.21328-.30758l.00886-.01283c.0254-.02807.05322-.05248.0808-.07838a1.44719,1.44719,0,0,1,.23-.17635c.031-.0192.06-.03971.09251-.05675a1.667,1.667,0,0,1,.369-.1445c.01208-.003.02516-.00316.0373-.006a1.9,1.9,0,0,1,.37494-.045c.01809-.00049.03463-.00632.05285-.00632.02547,0,.052.00787.07758.00887a2.08252,2.08252,0,0,1,.30485.03488c.04338.00806.08576.01425.12919.02516a2.22331,2.22331,0,0,1,.42482.14889A2.0496,2.0496,0,0,1,32.76852,16.97a1.44434,1.44434,0,0,1-.02112,1.14928l-.7192,1.49986-.00254.00527-2.64283,5.51168-1.8422,3.842-1.12586,2.34794-4.19151,1.00664.15106.45245,5.51429-1.41348,2.31461-.59329,1.8787-.48158a1.828,1.828,0,0,1,.40932-.05068c.01624-.00044.03191-.00595.04815-.00595.01834,0,.03631.00688.05465.00737a2.05468,2.05468,0,0,1,.47128.06333c.01029.00272.01989.00737.03018.01028a2.18376,2.18376,0,0,1,.42748.17449c.0264.01394.05273.02584.07851.04083a2.1266,2.1266,0,0,1,.3776.27983c.02311.02137.04362.044.06568.06642a1.92814,1.92814,0,0,1,.30206.38423,1.38049,1.38049,0,0,1-.44774,1.95014l-3.07786,1.81247L26.5087,37.56915Zm32.9939-21.36615c-1.67769,3.57176-6.89252,14.64762-7.56654,15.75656a20.03237,20.03237,0,0,1-3.51941,3.44288l-3.207,8.533-12.528-6.00714,1.4428-2.08671,6.93949-4.08643a3.76306,3.76306,0,0,0,1.29978-5.18514,4.52658,4.52658,0,0,0-3.86509-2.21491,4.22277,4.22277,0,0,0-1.04735.13105l-.96383.247,2.78428-5.80669,2.89018,6.375.44737-.16551L34.81056,24.7467l6.33263-13.20681a1.33925,1.33925,0,0,1,.22238-.31978c.02534-.028.05316-.0523.08067-.07808a1.45285,1.45285,0,0,1,.22982-.17585c.03111-.01921.06017-.03971.09276-.05682a1.66945,1.66945,0,0,1,.36874-.14412c.01146-.00291.02386-.003.03544-.00564a1.89544,1.89544,0,0,1,.3763-.04511c.018-.00049.03445-.00632.05254-.00632.02541,0,.05193.00787.07758.00886a2.081,2.081,0,0,1,.30523.035c.04319.00812.08551.01425.12876.02509a2.22425,2.22425,0,0,1,.42487.1489,1.76137,1.76137,0,0,1,1.02,2.25388l-4.4947,9.33533.46615.2235,5.31309-11.20021a1.13869,1.13869,0,0,1,.18837-.27307c.02162-.024.04536-.04492.06884-.06711a1.22865,1.22865,0,0,1,.19524-.15007c.02646-.01642.05112-.034.07888-.04864a1.4175,1.4175,0,0,1,.31359-.12306c.011-.00278.02281-.00291.03384-.00545a1.61671,1.61671,0,0,1,.31724-.03811c.01549-.00043.02968-.00545.0453-.00545.02156,0,.044.00669.06574.0075a1.76942,1.76942,0,0,1,.25913.02968c.03674.00688.07274.012.10955.02125a1.89357,1.89357,0,0,1,.36124.12665,1.4947,1.4947,0,0,1,.86332,1.92183L43.292,24.06319l.46615.22356,4.53243-9.29592a1.14863,1.14863,0,0,1,.191-.27146c.02181-.02385.04567-.04449.06934-.06648a1.24,1.24,0,0,1,.19586-.14871c.02689-.01655.05205-.034.0803-.0487a1.42893,1.42893,0,0,1,.31452-.12219c.00855-.00217.01772-.00217.02634-.00416a1.62719,1.62719,0,0,1,.32493-.03866c.01493-.00037.02863-.00521.04368-.00521.02163,0,.04412.00676.06587.00756a1.77933,1.77933,0,0,1,.26346.03012c.0365.00688.07231.01214.10887.02131a1.90246,1.90246,0,0,1,.36384.12752,1.509,1.509,0,0,1,.87442,1.92865L46.77272,25.661l.4558.2007L50.897,18.44257a1.046,1.046,0,0,1,.27964-.33633c.02837-.02367.05644-.0448.08711-.06568a1.24494,1.24494,0,0,1,.38628-.18192l.01543-.006a1.47723,1.47723,0,0,1,.35616-.04331c.03761,0,.07652.01041.11463.01314.03965.00285.07745.00762.11742.01344a1.68573,1.68573,0,0,1,.49359.14214A1.36454,1.36454,0,0,1,53.54336,19.71225Z"/></svg>