<svg id="Layer_1" data-name="Layer 1" xmlns="http://www.w3.org/2000/svg" viewBox="0 0 59.5 55.65481"><defs><style>.cls-1{fill:#2a9bb9;}.cls-2{fill:#fff;}.cls-3{fill:#2e9bb9;}</style></defs><title>icon-hcc</title><path class="cls-1" d="M30.76883,35.42954c-.50922-.02923-.75214.52057-1.08576.50141s-.71325-.46375-1.18835-.47339-1.30957.71759-1.63471.85748-.66522-.07342-.70636.02991a5.25454,5.25454,0,0,0,1.71381,1.75433,3.62912,3.62912,0,0,0,3.34326.29224,4.403,4.403,0,0,0,2.21173-1.92884c.005-.08782-.313-.0708-.88641-.20941S31.278,35.45878,30.76883,35.42954Z"/><path class="cls-1" d="M24.84524,27.639a.71965.71965,0,0,1-.23742-.048.39786.39786,0,0,1,.01733.08594.41458.41458,0,1,1-.41461-.41461l.00738.00152a.71366.71366,0,0,1-.09332-.29059,1.0347,1.0347,0,0,0-.25928-.05236,1.07614,1.07614,0,1,0,1.07611,1.07617,1.05975,1.05975,0,0,0-.07318-.36273C24.86014,27.63462,24.85342,27.639,24.84524,27.639Z"/><path class="cls-1" d="M22.81479,23.6254c.96106.33918,3.97278,1.76746,4.18347,1.67719.26385-.1131.43341-.62189.43341-1.0553s-.73492-.69726-2.31787-1.28143a6.1942,6.1942,0,0,0-4.39075-.26386,2.34579,2.34579,0,0,0-1.48871,1.37567A4.686,4.686,0,0,1,22.81479,23.6254Z"/><path class="cls-1" d="M26.16018,27.43992a4.92016,4.92016,0,0,1,.97364,1.02466.05969.05969,0,0,0,.04785.02441.06032.06032,0,0,0,.02051-.00342.05757.05757,0,0,0,.03711-.06006c-.002-.02441-.27051-2.46386-3.78028-2.95459-3.49121-.48584-4.85254.68067-4.90918.73047a.05692.05692,0,0,0-.01465.06543.92226.92226,0,0,0,.748.46973,7.09125,7.09125,0,0,0,.75293.09375,3.60092,3.60092,0,0,0,.377,1.44629c.03516.03467.10645.0957.16309.06445.06934-.03711.05176-.13428.01367-.34765a2.87761,2.87761,0,0,1-.06347-.60108,1.305,1.305,0,0,1,.15332-.65771,4.09351,4.09351,0,0,1,1.50946-.40857,2.3797,2.3797,0,1,0,3.971,1.11389Zm-2.29492,2.33472a1.7773,1.7773,0,0,1-.69384-3.414,7.6134,7.6134,0,0,1,1.06256.16077,5.2179,5.2179,0,0,1,.99029.343,1.7673,1.7673,0,0,1-1.359,2.91022Z"/><path class="cls-1" d="M35.9891,27.639a.7196.7196,0,0,1-.23742-.048.39786.39786,0,0,1,.01733.08594.41458.41458,0,1,1-.41461-.41461l.00745.00152a.71352.71352,0,0,1-.09333-.29059,1.03516,1.03516,0,0,0-.25934-.05236,1.07614,1.07614,0,1,0,1.07618,1.07617,1.05981,1.05981,0,0,0-.07325-.36273C36.004,27.63462,35.99728,27.639,35.9891,27.639Z"/><path class="cls-1" d="M28.17972,33.72239a.22125.22125,0,0,0,.04394-.30713c.00586-.00488.03613-.01318.09668.0083a1.76593,1.76593,0,0,1,.33887.19141,1.56747,1.56747,0,0,0,.85254.33838,1.28612,1.28612,0,0,0,.75293-.32618,1.04816,1.04816,0,0,1,.39746-.21972.73209.73209,0,0,1,.30273.01367.21669.21669,0,0,0,.35938.15381.28376.28376,0,0,0,.07715-.33936c-.10645-.23242-.48633-.3081-.80372-.2583a1.36411,1.36411,0,0,0-.59082.29883.93541.93541,0,0,1-.49511.24268,1.235,1.235,0,0,1-.61426-.26758,2.12126,2.12126,0,0,0-.43359-.2378.503.503,0,0,0-.59571.14991.43939.43939,0,0,0,.002.52246A.2219.2219,0,0,0,28.17972,33.72239Z"/><path class="cls-2" d="M44.12112,16.154c-3.42773-4.96729-8.11328-7.99365-13.19336-8.52148-4.91992-.51075-9.88965,1.35107-13.99023,5.24414-10.44629,9.91992-1.49121,30.32666.65039,34.77929,1.92676-.33447,4.335-.98974,5.05469-1.73974.74695-.77784.96655-2.78046.9765-4.041-4.42316-2.554-7.64282-7.918-8.71784-14.97156a1.39421,1.39421,0,0,1-.18933.03357,1.36483,1.36483,0,0,1-.99475-2.30743,1.28458,1.28458,0,0,1,.087-.11347c.01452-.01269.32263-.28393.80762-.73309.38269-.35437.87884-.82452,1.44317-1.37964.51917-.51068,1.0882-1.08587,1.68146-1.71557a27.95284,27.95284,0,0,0,5.05707-6.86493c.04364-.09888.0982-.20105.13714-.29846a1.38073,1.38073,0,0,1,1.79492-.769c.03364.01343.06226.03339.09418.04914a1.37143,1.37143,0,0,1,.51947.43762c.00812.00982.02008.01385.028.024.03173.04047,1.0155,1.28077,2.60437,2.92249a37.169,37.169,0,0,0,7.75854,6.27667,19.61669,19.61669,0,0,0,2.02332,1.01935,12.18781,12.18781,0,0,0,4.25824,1.053q.41537.0173.82812-.00427c.1839-.00977.3667-.0326.54956-.05463a7.79485,7.79485,0,0,0,1.04523-.18964,1.35392,1.35392,0,0,1,.35388-.03991,1.3774,1.3774,0,0,1,.34534,2.71081c-.20648.05414-.41449.07862-.62171.11951C43.38382,34.48038,39.70059,40.1041,34.767,42.39628c.016.97064.20257,2.70715.983,3.52.71875.74853,3.32519,1.42187,5.3291,1.75146C43.13479,43.758,51.36526,26.65012,44.12112,16.154Z"/><path class="cls-2" d="M41.68594,27.27592a13.54219,13.54219,0,0,1-2.7016-.45734c-.06238.0058-.11474.00995-.14642.01172a3.585,3.585,0,0,1-.37695,1.44629c-.03614.03467-.10547.0957-.16309.06445-.06934-.03711-.05176-.13379-.01367-.3457a2.83155,2.83155,0,0,0,.06347-.60254,1.31692,1.31692,0,0,0-.15332-.65869,4.03677,4.03677,0,0,0-1.51086-.40979,2.37931,2.37931,0,1,1-3.96857,1.11517,4.92332,4.92332,0,0,0-.97467,1.02509.05969.05969,0,0,1-.04785.02441.06036.06036,0,0,1-.02051-.00342.05757.05757,0,0,1-.03711-.06006c.002-.0249.27149-2.46386,3.78125-2.95459.03125-.00439.05585-.0039.0868-.008-.56006-.28119-1.1109-.58606-1.65021-.90979a9.92473,9.92473,0,0,1-1.97638.74945c-.26386-.1131-.43347-.62189-.43347-1.0553,0-.26214.27392-.463.83661-.70947a45.02137,45.02137,0,0,1-7.77668-7.01618,44.8293,44.8293,0,0,1-7.06744,8.39606c.00989.11292.00922.22254.02179.33624C18.30758,32.98,22.42593,40.774,29.71322,40.774,35.532,40.774,40.27261,35.31657,41.68594,27.27592ZM27.86819,33.16331a.503.503,0,0,1,.59571-.14991,2.12126,2.12126,0,0,1,.43359.2378,1.235,1.235,0,0,0,.61426.26758.93541.93541,0,0,0,.49511-.24268,1.36411,1.36411,0,0,1,.59082-.29883c.31739-.0498.69727.02588.80372.2583a.28376.28376,0,0,1-.07715.33936.21669.21669,0,0,1-.35938-.15381.73209.73209,0,0,0-.30273-.01367,1.04816,1.04816,0,0,0-.39746.21972,1.28612,1.28612,0,0,1-.75293.32618,1.56747,1.56747,0,0,1-.85254-.33838,1.76593,1.76593,0,0,0-.33887-.19141c-.06055-.02148-.09082-.01318-.09668-.0083a.22263.22263,0,0,1-.35351.27051A.43939.43939,0,0,1,27.86819,33.16331ZM20.72305,22.702a6.1942,6.1942,0,0,1,4.39075.26386c1.583.58417,2.31787.848,2.31787,1.28143s-.16956.9422-.43341,1.0553c-.21069.09027-3.22241-1.338-4.18347-1.67719a4.686,4.686,0,0,0-3.58045.45227A2.34579,2.34579,0,0,1,20.72305,22.702Zm3.14221,7.66346A2.36693,2.36693,0,0,1,22.18918,26.326a4.09351,4.09351,0,0,0-1.50946.40857,1.305,1.305,0,0,0-.15332.65771,2.87761,2.87761,0,0,0,.06347.60108c.03809.21337.05567.31054-.01367.34765-.05664.03125-.12793-.02978-.16309-.06445a3.60092,3.60092,0,0,1-.377-1.44629,7.09125,7.09125,0,0,1-.75293-.09375.92226.92226,0,0,1-.748-.46973.05692.05692,0,0,1,.01465-.06543c.05664-.0498,1.418-1.21631,4.90918-.73047,3.50977.49073,3.77832,2.93018,3.78028,2.95459a.05757.05757,0,0,1-.03711.06006.06032.06032,0,0,1-.02051.00342.05969.05969,0,0,1-.04785-.02441,4.92016,4.92016,0,0,0-.97364-1.02466,2.34584,2.34584,0,0,1,.07325.55737A2.371,2.371,0,0,1,23.86526,30.36546Zm7.34546,8.02606a3.62912,3.62912,0,0,1-3.34326-.29224A5.25454,5.25454,0,0,1,26.15365,36.345c.04114-.10333.38123.11.70636-.02991s1.15961-.86713,1.63471-.85748.85473.45422,1.18835.47339.57654-.53064,1.08576-.50141,1.19385.68512,1.76721.82373.89142.12159.88641.20941A4.403,4.403,0,0,1,31.21072,38.39152Z"/><path class="cls-2" d="M35.70291,26.36076c-.07471.00647-.156.01764-.23444.02618a5.84245,5.84245,0,0,0-1.81775.47742,1.76108,1.76108,0,0,0-.41925,1.13293,1.77784,1.77784,0,0,0,3.55567,0,1.759,1.759,0,0,0-.16638-.74A1.78541,1.78541,0,0,0,35.70291,26.36076Zm-.69373,2.71246a1.07614,1.07614,0,1,1,0-2.15228,1.03516,1.03516,0,0,1,.25934.05236.71352.71352,0,0,0,.09333.29059l-.00745-.00152a.41458.41458,0,1,0,.41461.41461.39786.39786,0,0,0-.01733-.08594.7196.7196,0,0,0,.23742.048c.00818,0,.0149-.0044.023-.00464a1.05981,1.05981,0,0,1,.07325.36273A1.07616,1.07616,0,0,1,35.00918,29.07322Z"/><path class="cls-2" d="M24.234,26.5214a7.6134,7.6134,0,0,0-1.06256-.16077,1.77765,1.77765,0,1,0,2.47216,1.63666,1.75754,1.75754,0,0,0-.41931-1.13287A5.2179,5.2179,0,0,0,24.234,26.5214Zm-.36866,2.55182a1.07614,1.07614,0,1,1,0-2.15228,1.0347,1.0347,0,0,1,.25928.05236.71366.71366,0,0,0,.09332.29059l-.00738-.00152a.41458.41458,0,1,0,.41461.41461.39786.39786,0,0,0-.01733-.08594.71965.71965,0,0,0,.23742.048c.00818,0,.0149-.0044.023-.00464a1.05975,1.05975,0,0,1,.07318.36273A1.0761,1.0761,0,0,1,23.86532,29.07322Z"/><path class="cls-3" d="M46.39358,14.58567C42.5,8.94358,37.1094,5.49924,31.2139,4.886c-5.74414-.59228-11.4834,1.53077-16.17774,5.98877-5.53125,5.25244-7.16357,13.70655-4.7207,24.44776a64.965,64.965,0,0,0,5.26416,14.4956,1.38167,1.38167,0,0,0,1.39209.72266c.96094-.12061,5.8457-.81983,7.66308-2.7124a8.08207,8.08207,0,0,0,1.69562-4.7912,12.04953,12.04953,0,0,0,3.38281.498,11.8912,11.8912,0,0,0,2.33008-.24792,7.55772,7.55772,0,0,0,1.71454,4.54108c1.81934,1.8955,6.90918,2.59277,7.91113,2.71338a1.37486,1.37486,0,0,0,1.35938-.67872C43.545,48.97141,55.56448,27.87376,46.39358,14.58567ZM29.71322,40.774c-7.28729,0-11.40564-7.794-12.25616-15.52008-.01257-.1137-.0119-.22332-.02179-.33624a44.8293,44.8293,0,0,0,7.06744-8.39606,45.02137,45.02137,0,0,0,7.77668,7.01618c-.56269.24646-.83661.44733-.83661.70947,0,.43341.16961.9422.43347,1.0553a9.92473,9.92473,0,0,0,1.97638-.74945c.53931.32373,1.09015.6286,1.65021.90979-.03095.00409-.05555.0036-.0868.008-3.50976.49073-3.77929,2.92969-3.78125,2.95459a.05757.05757,0,0,0,.03711.06006.06036.06036,0,0,0,.02051.00342.05969.05969,0,0,0,.04785-.02441,4.92332,4.92332,0,0,1,.97467-1.02509,2.36438,2.36438,0,1,0,3.96857-1.11517,4.03677,4.03677,0,0,1,1.51086.40979,1.31692,1.31692,0,0,1,.15332.65869,2.83155,2.83155,0,0,1-.06347.60254c-.03809.21191-.05567.30859.01367.3457.05762.03125.127-.02978.16309-.06445a3.585,3.585,0,0,0,.37695-1.44629c.03168-.00177.084-.00592.14642-.01172a13.54219,13.54219,0,0,0,2.7016.45734C40.27261,35.31657,35.532,40.774,29.71322,40.774Zm5.98969-14.41326a1.78541,1.78541,0,0,1,.91785.89654,1.759,1.759,0,0,1,.16638.74,1.77784,1.77784,0,0,1-3.55567,0,1.76108,1.76108,0,0,1,.41925-1.13293,5.84245,5.84245,0,0,1,1.81775-.47742C35.547,26.3784,35.6282,26.36723,35.70291,26.36076ZM41.07913,47.6677c-2.00391-.32959-4.61035-1.00293-5.3291-1.75146-.78046-.81281-.967-2.54932-.983-3.52,4.93359-2.29218,8.61682-7.9159,9.74511-15.31659.20722-.04089.41523-.06537.62171-.11951a1.37852,1.37852,0,0,0-.34534-2.71081,1.35392,1.35392,0,0,0-.35388.03991,7.79485,7.79485,0,0,1-1.04523.18964c-.18286.022-.36566.04486-.54956.05463q-.41272.02178-.82812.00427a12.18781,12.18781,0,0,1-4.25824-1.053,19.61669,19.61669,0,0,1-2.02332-1.01935,37.169,37.169,0,0,1-7.75854-6.27667c-1.58887-1.64172-2.57264-2.882-2.60437-2.92249-.00788-.01013-.01984-.01416-.028-.024a1.37143,1.37143,0,0,0-.51947-.43762c-.03192-.01575-.06054-.03571-.09418-.04914a1.38073,1.38073,0,0,0-1.79492.76905c-.03894.09741-.0935.19958-.13714.29846A27.95284,27.95284,0,0,1,17.73648,20.688c-.59326.6297-1.16229,1.20489-1.68146,1.71557-.56433.55512-1.06048,1.02527-1.44317,1.37964-.485.44916-.7931.7204-.80762.73309a1.28458,1.28458,0,0,0-.087.11347,1.36483,1.36483,0,0,0,.99475,2.30743,1.39421,1.39421,0,0,0,.18933-.03357c1.075,7.05353,4.29468,12.41761,8.71784,14.97156-.00995,1.26056-.22955,3.26318-.9765,4.041-.71973.75-3.12793,1.40527-5.05469,1.73974-2.1416-4.45263-11.09668-24.85937-.65039-34.77929,4.10058-3.89307,9.07031-5.75489,13.99023-5.24414,5.08008.52783,9.76563,3.55419,13.19336,8.52148C51.36526,26.65012,43.13479,43.758,41.07913,47.6677Z"/></svg>