<svg id="Layer_1" data-name="Layer 1" xmlns="http://www.w3.org/2000/svg" viewBox="0 0 59.5 55.65481"><defs><style>.cls-1{fill:none;}.cls-2{fill:#fff;}.cls-3{fill:#2e9bb9;}</style></defs><title>icon-hcc</title><path class="cls-1" d="M12.685,40.13694c.038-.3985.0758-.79285.11206-1.16821C12.76083,39.34409,12.72305,39.73844,12.685,40.13694Z"/><path class="cls-1" d="M43.874,12.62522q.35651-.13806.71893-.24792Q44.23048,12.48661,43.874,12.62522Z"/><path class="cls-1" d="M42.8,13.11436a9.06388,9.06388,0,0,1,.84082-.3963A9.07116,9.07116,0,0,0,42.8,13.11436Z"/><path class="cls-1" d="M44.7474,12.32847c.28858-.08216.579-.15051.86994-.20838C45.32632,12.178,45.0361,12.24625,44.7474,12.32847Z"/><path class="cls-1" d="M46.7532,11.9495c.28839-.02991.57575-.05176.86005-.06348C47.32876,11.89774,47.04172,11.91959,46.7532,11.9495Z"/><path class="cls-1" d="M45.83194,12.0817q.3522-.06316.70379-.10583Q46.18418,12.01826,45.83194,12.0817Z"/><path class="cls-1" d="M7.94644,30.927c-.04633.01611-.09216.03461-.13886.04858C7.8544,30.96165,7.9,30.94321,7.94644,30.927Z"/><path class="cls-1" d="M7.48489,31.0546c-.02752.00562-.055.014-.08258.01892C7.4299,31.06852,7.4573,31.06016,7.48489,31.0546Z"/><path class="cls-1" d="M8.35647,30.74949c-.04974.02606-.0993.05273-.15008.07568C8.25729,30.80216,8.30661,30.77567,8.35647,30.74949Z"/><polygon class="cls-1" points="46.964 44.649 42.741 30.836 46.964 44.649 46.964 44.649"/><path class="cls-1" d="M54.013,12.81431c.08533.02814.15082.05066.19842.06738C54.16342,12.86485,54.10092,12.84324,54.013,12.81431Z"/><path class="cls-1" d="M52.00058,12.28214c.20447.04285.39856.08667.58075.13037Q52.30758,12.34678,52.00058,12.28214Z"/><path class="cls-1" d="M52.69827,12.44126c.15607.03845.30408.07654.44037.1134C53.0021,12.51768,52.8547,12.47977,52.69827,12.44126Z"/><path class="cls-1" d="M53.2178,12.57578q.225.062.407.11707C53.50271,12.65617,53.36868,12.61729,53.2178,12.57578Z"/><path class="cls-1" d="M54.24417,12.89329l.05487.01977Z"/><path class="cls-1" d="M48.23477,11.87229c-.15784,0-.31812.00556-.47809.01056q.373-.01171.7381-.00555C48.40793,11.87583,48.32236,11.87229,48.23477,11.87229Z"/><path class="cls-1" d="M53.71292,12.71964c.10266.03144.19757.06134.27429.08643C53.90988,12.78074,53.81662,12.75144,53.71292,12.71964Z"/><path class="cls-1" d="M48.68667,11.881c.27222.00775.54108.02069.80317.04053C49.22757,11.90165,48.95907,11.88865,48.68667,11.881Z"/><path class="cls-1" d="M51.3002,12.149c.19952.03461.39221.07087.57666.10834Q51.59992,12.201,51.3002,12.149Z"/><path class="cls-1" d="M49.605,11.93174q.35358.02912.69122.07025Q49.95843,11.96134,49.605,11.93174Z"/><path class="cls-1" d="M50.458,12.0214c.24524.03168.48388.06665.713.10486Q50.827,12.06895,50.458,12.0214Z"/><path class="cls-1" d="M12.2601,44.64915h0c.00006-.00043.14447-1.55341.31152-3.31855C12.40457,43.096,12.2601,44.64915,12.2601,44.64915Z"/><path class="cls-1" d="M8.254,23.82676c.04119-.07452.08807-.13391.13128-.20325C8.34207,23.69285,8.29519,23.75224,8.254,23.82676Z"/><path class="cls-1" d="M12.32486,21.90287c.0719.00989.14111.021.2088.0329C12.46554,21.92387,12.39725,21.91288,12.32486,21.90287Z"/><path class="cls-1" d="M11.60727,21.85044c-.03467,0-.07141.00494-.10645.00568.07605-.00165.15155-.00263.22565-.0008C11.68625,21.85435,11.6481,21.85044,11.60727,21.85044Z"/><path class="cls-1" d="M5.311,31.00724l-.07251-.01678Z"/><path class="cls-1" d="M11.919,21.86326q.1161.00723.22742.01886C12.07181,21.87424,11.99679,21.86814,11.919,21.86326Z"/><path class="cls-1" d="M5.21579,30.985l-.03217-.0083Z"/><path class="cls-1" d="M10.02341,22.16264c.07427-.03193.1491-.058.22393-.08423C10.17233,22.10471,10.09787,22.13065,10.02341,22.16264Z"/><path class="cls-1" d="M9.0737,22.7739c.06482-.0589.13257-.10693.19922-.15905C9.20614,22.667,9.13858,22.71494,9.0737,22.7739Z"/><path class="cls-1" d="M9.53763,22.41935c.0711-.04529.14373-.08234.21606-.12122C9.68124,22.33714,9.60885,22.37394,9.53763,22.41935Z"/><path class="cls-1" d="M10.52017,21.99137c.0755-.02.15082-.03619.22607-.05133C10.67074,21.95518,10.59591,21.97129,10.52017,21.99137Z"/><path class="cls-1" d="M8.64187,23.23917c.056-.07153.1164-.12951.17469-.19427C8.75827,23.10978,8.69784,23.16758,8.64187,23.23917Z"/><path class="cls-1" d="M13.604,22.226l.04346.0177Z"/><path class="cls-1" d="M13.47751,22.17887c.03955.0141.06915.02533.09509.03534C13.54611,22.204,13.51816,22.19334,13.47751,22.17887Z"/><path class="cls-1" d="M6.30325,31.138c-.10022-.00482-.19647-.01184-.28723-.02057C6.10684,31.1262,6.203,31.13322,6.30325,31.138Z"/><path class="cls-1" d="M13.27707,22.11271c.04925.01532.09076.02917.13092.04285C13.36728,22.1417,13.32718,22.12827,13.27707,22.11271Z"/><path class="cls-1" d="M6.57065,31.14475l.036-.00146c-.07636.00049-.1507-.0008-.22357-.0033C6.445,31.14213,6.50619,31.14475,6.57065,31.14475Z"/><path class="cls-1" d="M6.99808,31.12638c-.0365.003-.07148.00336-.10755.00562C6.92673,31.12974,6.96145,31.12949,6.99808,31.12638Z"/><path class="cls-1" d="M5.66928,31.0734c-.04529-.007-.08978-.014-.12958-.021C5.57992,31.05943,5.62344,31.06632,5.66928,31.0734Z"/><path class="cls-1" d="M5.94662,31.10954c-.06579-.00715-.13025-.01459-.18933-.02283C5.81662,31.095,5.88052,31.10239,5.94662,31.10954Z"/><path class="cls-1" d="M12.69235,21.96458c.06525.01324.12659.02716.18652.04138C12.81839,21.99168,12.75821,21.97794,12.69235,21.96458Z"/><path class="cls-1" d="M5.4617,31.03806c-.03571-.00689-.06958-.01361-.09888-.01977C5.39285,31.0247,5.42489,31.031,5.4617,31.03806Z"/><path class="cls-1" d="M13.01236,22.03782c.05853.0152.1112.03027.16278.04529C13.123,22.06791,13.07162,22.0532,13.01236,22.03782Z"/><path class="cls-1" d="M11.0159,21.89347q.11233-.01484.223-.02344C11.16476,21.87589,11.09109,21.88358,11.0159,21.89347Z"/><path class="cls-1" d="M8.73373,30.51017q-.07095.054-.14453.10223C8.63833,30.58012,8.68631,30.5463,8.73373,30.51017Z"/><path class="cls-1" d="M27.82425,35.77073l1.24688,5.40442,1.27369-5.04578c-.39887-.03369-.78492-.07214-1.14521-.11981C28.72275,35.94645,28.26437,35.86454,27.82425,35.77073Z"/><polygon class="cls-1" points="26.644 44.649 26.644 44.649 24.396 34.907 24.396 34.907 26.644 44.649"/><path class="cls-1" d="M9.36838,29.80985c-.02936.04779-.0633.088-.09467.13263C9.30508,29.8978,9.339,29.85777,9.36838,29.80985Z"/><path class="cls-1" d="M9.074,30.19975c-.04083.04486-.08423.08471-.12713.12567C8.9899,30.2844,9.03311,30.24473,9.074,30.19975Z"/><path class="cls-2" d="M21.84457,37.0167l3.2013,7.63245h1.59826l-2.2478-9.74262C23.52176,35.62284,22.65414,36.34037,21.84457,37.0167Z"/><path class="cls-2" d="M33.5585,36.25181l-2.11969,8.3974h2.169l3.17627-7.97949-.2768-.50019C35.67117,36.21366,34.64682,36.25028,33.5585,36.25181Z"/><path class="cls-2" d="M54.299,12.91306l-.05487-.01977-.03278-.0116c-.0476-.01672-.11309-.03924-.19842-.06738l-.02576-.00824c-.07672-.02509-.17163-.055-.27429-.08643l-.08814-.02679q-.18237-.05475-.407-.11707l-.07916-.02112c-.13629-.03686-.2843-.07495-.44037-.1134-.039-.00964-.07678-.0191-.11694-.02875-.18219-.0437-.37628-.08752-.58075-.13037-.04022-.00842-.0827-.01648-.12372-.02484-.18445-.03747-.37714-.07373-.57666-.10834-.04334-.00756-.08527-.01538-.12921-.0227-.22907-.03821-.46771-.07318-.713-.10486-.05323-.0069-.10791-.01288-.16187-.01941q-.33745-.04065-.69122-.07025c-.0387-.00317-.07617-.00726-.11511-.01025-.26209-.01984-.531-.03278-.80317-.04053-.06366-.00183-.12786-.00263-.19189-.00366q-.36474-.006-.7381.00555c-.048.00153-.09527.00116-.14343.00317-.2843.01172-.57166.03357-.86005.06348-.07239.00751-.145.01764-.21747.02637q-.35128.04248-.70379.10583c-.07154.01282-.14307.02417-.2146.03839-.2909.05787-.58136.12622-.86994.20838-.05175.01471-.10284.03326-.15448.04883q-.36236.10931-.71893.24792c-.078.03015-.15576.06049-.23321.09284a9.06388,9.06388,0,0,0-.84082.3963,20.3357,20.3357,0,0,0-7.13733,7.33319H24.01846c-4.338,0-9.27539,2.56854-8.42053,9.46484,0,0-2.42456,5.2616-2.65289,7.5448-.04279.4281-.09363.94849-.14795,1.51154-.03626.37536-.074.76971-.11206,1.16821s-.0763.80139-.11341,1.19366c-.167,1.76514-.31146,3.31812-.31152,3.31855h1.82654s.09631-.73847.25885-1.7157c.0271-.1629.056-.3324.08667-.50623.06128-.34765.12933-.71258.20306-1.07629a9.48519,9.48519,0,0,1,.93549-2.98047,27.97159,27.97159,0,0,1,2.47888-2.26819c.79205-.67712,1.67438-1.41589,2.52258-2.11926l.01532-.01276c1.23841-1.02685,2.37567-1.95562,3.01245-2.47351l.00818-.00665c.32044-.26062.52448-.42578.52448-.42578a16.089,16.089,0,0,0,5.47961,1.82654c.4837.064,1.00055.09973,1.51642.1333.11536.0075.22308.02368.33911.02984.041.0022.08173.00482.1228.00684.62.03058,1.24561.04382,1.85315.04449.07373.00006.14667-.00024.21979-.00055.21149-.00079.42035-.00268.62549-.0061l.06573-.00116-.00012.00049c.0603-.001.11908-.0022.17871-.00348.27143-.00574.53839-.01276.79224-.02173.2608-.00928.50732-.0202.744-.03161.069-.00336.13232-.0066.19891-.01007.16968-.00873.3327-.01777.48547-.02692l.16742-.01c.19056-.012.37134-.02387.5271-.0351.16175-.01165.29761-.02221.4162-.0318l.1048-.0086c.06976-.00586.13415-.01129.18066-.01538l.06977-.00617.06848-.00628,1.96942,3.55871,4.53766,8.19959h2.169L42.74051,30.836a18.32318,18.32318,0,0,0,1.82654-3.76722c.07135-.22833.158-.52508.255-.86956.14551-.51673.31427-1.14087.48975-1.80274.05847-.22058.11773-.44543.17706-.67181.11871-.45276.23785-.912.35254-1.35694s.22491-.87561.32574-1.2713.19226-.75647.26941-1.06164c.15418-.61029.251-.99817.251-.99817l2.33166,5.40649,2.73981-.34247s1.36987-7.33471.39954-9.21832Z"/><path class="cls-2" d="M13.64749,22.24369,13.604,22.226l-.03143-.01178c-.02594-.01-.05554-.02124-.09509-.03534-.01953-.007-.04694-.01562-.06952-.02331-.04016-.01368-.08167-.02753-.13092-.04285-.03076-.00958-.06793-.01965-.10193-.0296-.05158-.015-.10425-.03009-.16278-.04529-.04175-.01087-.0885-.02118-.13349-.03186-.05993-.01422-.12127-.02814-.18652-.04138-.05078-.01032-.105-.01935-.15869-.02881-.06769-.0119-.1369-.023-.2088-.0329-.058-.00793-.11811-.0144-.17847-.02075q-.11133-.01163-.22742-.01886c-.06317-.00391-.1275-.00629-.1925-.00794-.0741-.00183-.1496-.00085-.22565.0008-.0863.00189-.17364.00689-.2619.01391q-.11087.00879-.223.02344c-.08942.01184-.17938.02838-.26966.04657-.07525.01514-.15057.03131-.22607.05133-.09113.02417-.182.05518-.27283.087-.07483.02624-.14966.0523-.22393.08423-.09089.03906-.18024.0874-.26972.13549-.07233.03888-.145.07593-.21606.12122-.09009.05743-.17725.12714-.26471.1955-.06665.05212-.1344.10015-.19922.15905-.08875.08063-.17261.177-.25714.271-.05829.06476-.11872.12274-.17469.19427a4.47466,4.47466,0,0,0-.25659.38434c-.04321.06934-.09009.12873-.13128.20325a5.55,5.55,0,0,0-.33368.7232c-1.55445,4.10749-.80439,5.54621-2.7367,6.42676l.03217.0083.0227.00544.07251.01678.05182.01105c.0293.00616.06317.01288.09888.01977l.078.01429c.0398.00708.08429.014.12958.021.02893.00446.057.009.088.01331.05908.00824.12354.01568.18933.02283.02362.00256.045.00555.0694.00787.09076.00873.187.01575.28723.02057.02582.00122.05353.00116.07984.002.07287.0025.14721.00379.22357.0033.09228-.00061.18774-.00531.28387-.01129.03607-.00226.071-.00257.10755-.00562.133-.01129.26825-.02838.40423-.05286.02753-.00494.05506-.0133.08258-.01892.10779-.02179.21558-.04693.32269-.079.0467-.014.09253-.03247.13886-.04858.08752-.0304.1745-.06323.26-.10187.05078-.023.10034-.04962.15008-.07568a2.70018,2.70018,0,0,0,.23273-.13709q.07352-.04842.14453-.10223a2.54176,2.54176,0,0,0,.21314-.18475c.0429-.041.0863-.08081.12713-.12567a2.61444,2.61444,0,0,0,.19971-.25727c.03137-.04461.06531-.08484.09467-.13263a2.94622,2.94622,0,0,0,.2387-.4779c.31415-.80915.55951-1.77387.83179-2.72754.109-.38147.22217-.76117.34583-1.12848q.09274-.27549.19409-.54028a8.04754,8.04754,0,0,1,.45361-.99268,5.117,5.117,0,0,1,.26874-.4364,3.41116,3.41116,0,0,1,.64416-.71295A2.46509,2.46509,0,0,1,13.64749,22.24369Z"/><path class="cls-3" d="M57.38687,12.31144a3.14579,3.14579,0,0,0-1.98279-2.34381,22.14553,22.14553,0,0,0-7.16931-1.24127,14.36307,14.36307,0,0,0-6.93744,1.6242,22.48671,22.48671,0,0,0-7.37146,6.95105H24.01846A12.36333,12.36333,0,0,0,15.94168,20.106a3.12381,3.12381,0,0,0-1.04749-.75062,8.8273,8.8273,0,0,0-3.28692-.65081A6.85769,6.85769,0,0,0,4.97806,23.4365,26.94582,26.94582,0,0,0,3.8002,27.51774c-.05273.24035-.11377.51825-.16638.72418a3.155,3.155,0,0,0,.71191,5.767,8.9072,8.9072,0,0,0,2.22492.28174,6.49762,6.49762,0,0,0,4.48352-1.63391,20.486,20.486,0,0,0-1.23944,4.48736c-.229,2.2901-.687,7.21363-.687,7.21363a3.14584,3.14584,0,0,0,3.13239,3.43731h1.82654a3.14653,3.14653,0,0,0,3.11938-2.7384,32.33638,32.33638,0,0,1,.95185-4.84992c.23815-.2323.6535-.60369,1.1712-1.05413l2.81573,6.71331a3.14587,3.14587,0,0,0,2.90107,1.92914h1.59826a3.14041,3.14041,0,0,0,2.39923-1.12469,3.13823,3.13823,0,0,0,2.39545,1.12469h2.169a3.14588,3.14588,0,0,0,2.92285-1.98242l2.22284-5.58423,3.28937,5.944a3.1458,3.1458,0,0,0,2.7525,1.62268h2.169a3.1459,3.1459,0,0,0,3.00843-4.06579L46.15256,31.23606a18.64978,18.64978,0,0,0,1.41717-3.22894c.05866-.18768.12647-.41657.20093-.67652a3.139,3.139,0,0,0,1.63879.23407l2.73981-.34246a3.14581,3.14581,0,0,0,2.70221-2.54407,35.036,35.036,0,0,0,.73541-8.67517l.8421-.77478A3.14578,3.14578,0,0,0,57.38687,12.31144ZM10.97879,24.93565q-.1018.26421-.19409.54028c-.12366.36731-.23688.747-.34583,1.12848-.27228.95367-.51764,1.91839-.83179,2.72754a2.94581,2.94581,0,0,1-.2387.4779c-.02942.04792-.0633.08795-.09467.13263a2.62156,2.62156,0,0,1-.19971.25727c-.04089.045-.0841.08465-.12713.12567a2.54176,2.54176,0,0,1-.21314.18475c-.04742.03613-.0954.07-.14453.10223a2.70018,2.70018,0,0,1-.23273.13709c-.04986.02618-.09918.05267-.15008.07568-.08557.0387-.17224.07141-.26.10187-.04645.01617-.092.03461-.13886.04858-.10723.03205-.21478.05719-.32269.079-.02759.00556-.055.01392-.08258.01892-.136.02454-.27118.04157-.40423.05286-.03663.00311-.07135.00336-.10755.00562-.09637.00592-.19134.01068-.28387.01129l-.036.00146c-.06446,0-.12568-.00262-.18756-.00476-.02643-.00091-.054-.00079-.07984-.002-.10028-.00476-.19641-.01178-.28723-.02057-.02454-.00238-.04565-.00531-.0694-.00787-.0661-.00715-.13-.01459-.18933-.02283-.03149-.00434-.05865-.00879-.088-.01331-.04584-.00708-.08936-.014-.12958-.021l-.078-.01429c-.03681-.00708-.06885-.01336-.09888-.01977L5.311,31.00724l-.07251-.01678-.0227-.00544-.03217-.0083c1.93231-.88055,1.18225-2.31927,2.7367-6.42676a5.55,5.55,0,0,1,.33368-.7232c.04119-.07452.08807-.13391.13128-.20325a4.47466,4.47466,0,0,1,.25659-.38434c.056-.07159.1164-.12939.17469-.19427.08459-.09412.16833-.19031.25714-.271.06488-.059.13244-.10687.19922-.15905.08758-.06843.1745-.138.26471-.1955.07122-.04541.14361-.08221.21606-.12122.0896-.04821.17865-.09643.26972-.13549.07446-.032.14892-.05793.22393-.08423.09107-.032.18152-.06287.27283-.087.07574-.02008.15057-.03619.22607-.05133.09052-.01819.18-.03479.26966-.04657.07519-.00989.14886-.01758.223-.02344.08856-.007.17535-.012.2619-.01391.035-.00074.07178-.00568.10645-.00568.04083,0,.079.00391.1192.00488.06537.00159.129.004.1925.00794.07782.00488.15284.011.22742.01886.06079.00641.12006.01269.17847.02075.07239.01.14068.021.2088.0329.05426.00946.10742.01837.15869.02881.06586.01336.126.0271.18652.04138.04566.01074.09119.02087.13349.03186.05926.01538.11065.03009.16278.04529.03479.01013.07056.01983.10193.0296.05011.01556.09021.029.13092.04285.02356.008.04931.01611.06952.02331.04065.01447.0686.02515.09509.03534l.03143.01178.04346.0177a2.46509,2.46509,0,0,0-1.30219.54993,3.41116,3.41116,0,0,0-.64416.71295,5.117,5.117,0,0,0-.26874.4364A8.04754,8.04754,0,0,0,10.97879,24.93565Zm14.06708,19.7135-3.2013-7.63245c.80957-.67633,1.67719-1.39386,2.55176-2.11017l2.2478,9.74262Zm4.02526-3.474-1.24688-5.40442c.44012.09381.8985.17572,1.37536.23883.36029.04767.74634.08612,1.14521.11981Zm4.53669,3.47406h-2.169l2.11969-8.3974c1.08832-.00153,2.11267-.03815,2.94879-.08228l.2768.50019ZM52.1586,14.8823c.97033,1.88361-.39954,9.21832-.39954,9.21832l-2.73981.34247L46.68759,19.0366s-.09686.38788-.251.99817c-.07715.30517-.16858.66595-.26941,1.06164s-.21106.82636-.32574,1.2713-.23383.90412-.35254,1.35694c-.05933.22638-.11859.45123-.17706.67181-.17548.66187-.34424,1.286-.48975,1.80274-.097.34448-.18365.64123-.255.86956A18.32318,18.32318,0,0,1,42.74051,30.836l4.22387,13.81317h-2.169l-4.53766-8.19959L38.2883,32.89085l-.06848.00628-.06977.00617c-.048.00427-.10724.00927-.18066.01538l-.1048.0086c-.11914.00959-.25323.02008-.4162.0318-.15612.01123-.336.02314-.5271.0351l-.16742.01c-.1535.00915-.31488.01813-.48547.02692-.06659.00347-.12994.00671-.19891.01007-.23706.01141-.48273.0224-.744.03161-.25409.009-.52051.016-.79224.02173-.05963.00128-.11841.00244-.17871.00348l.00012-.00049-.06573.00116c-.20551.00336-.41358.00531-.62549.0061-.07312.00031-.14606.00061-.21979.00055-.60821-.00061-1.23254-.01385-1.85315-.04449-.04162-.00208-.08123-.00464-.1228-.00684-.116-.00616-.22375-.02234-.33911-.02984-.51587-.03357-1.03272-.06934-1.51642-.1333a16.089,16.089,0,0,1-5.47961-1.82654s-.204.16516-.52448.42578l-.00818.00665c-.63678.51789-1.774,1.44666-3.01245,2.47351l-.01532.01276c-.8482.70337-1.73053,1.44214-2.52258,2.11926a27.97159,27.97159,0,0,0-2.47888,2.26819,9.48519,9.48519,0,0,0-.93549,2.98047c-.07373.36371-.14178.72858-.20306,1.07629-.03064.17383-.05957.34333-.08667.50623-.04065.24432-.07715.47369-.109.68036-.09564.61993-.14984,1.03534-.14984,1.03534H12.2601s.14447-1.55316.31152-3.31855c.03711-.39227.07538-.7951.11341-1.19366s.0758-.79285.11206-1.16821c.05432-.56305.10516-1.08344.14795-1.51154.22833-2.2832,2.65289-7.5448,2.65289-7.5448-.85486-6.8963,4.08252-9.46484,8.42053-9.46484H35.66263A20.3357,20.3357,0,0,1,42.8,13.11436a9.07116,9.07116,0,0,1,.84082-.3963c.07751-.03241.15515-.06269.23321-.09284q.35659-.13806.71893-.24792c.0517-.01557.10267-.03406.15448-.04883.2887-.08222.57892-.15051.86994-.20838.07165-.01422.14294-.02551.2146-.03839q.35238-.06325.70379-.10583c.0727-.00873.145-.01886.21747-.02637.28852-.02991.57556-.05176.86005-.06348.04828-.002.09534-.0017.14343-.00317.16-.005.32025-.01056.47809-.01056.08759,0,.17316.00354.26.005.06427.0011.12805.00189.19189.00366.2724.00769.5409.02069.80317.04053.03906.003.07629.007.11511.01025q.35385.02912.69122.07025c.0542.00653.1084.01251.16187.01941q.36831.04752.713.10486c.04419.00732.08563.01514.12921.0227q.29966.05191.57666.10834c.04132.00836.08319.01636.12372.02484q.30733.06446.58075.13037c.04059.00977.07751.019.11694.02875.15643.03851.30383.07642.44037.1134l.07916.02112c.15088.04151.28491.08039.407.11707l.08814.02679c.1037.0318.197.0611.27429.08643l.02576.00824c.08795.02893.15045.05054.19842.06738l.03278.0116.05487.01977Z"/></svg>