<svg id="Layer_1" data-name="Layer 1" xmlns="http://www.w3.org/2000/svg" viewBox="0 0 59.5 55.65481"><defs><style>.cls-1{fill:#fff;}.cls-2{fill:#2e9bb9;}</style></defs><title>icon-hcc</title><path class="cls-1" d="M41.81283,25.57348l-4.577-3.40185c-1.11334.12372-1.97925,1.7937-1.97925,1.7937v6.135h6.55627Z"/><polygon class="cls-1" points="35.321 31.498 36.172 31.498 36.172 40.127 42.698 40.127 42.698 30.659 34.372 30.659 34.372 40.127 35.321 40.127 35.321 31.498"/><path class="cls-1" d="M34.02164,40.73565l-.68519,1.142v8.00806a2.05477,2.05477,0,0,0,2.05475,2.05475h6.287a2.05472,2.05472,0,0,0,2.05475-2.05475V41.87768l-.66376-1.142Z"/><path class="cls-1" d="M22.83993,32.56823V15.18463h.84088a.43949.43949,0,0,0,0-.879h-.84088v-.61487H24.6832a.43948.43948,0,0,0,0-.879H22.83993v-.71405h2.45588a.40409.40409,0,0,0,0-.80817H22.83993v-.667h2.8526a.38355.38355,0,1,0,0-.76709h-2.8526v-.639h2.8526a.38355.38355,0,1,0,0-.76709h-2.8526V7.78265h2.45588a.404.404,0,0,0,0-.8081H22.83993v-.714H24.6832a.43949.43949,0,0,0,0-.879H22.83993V4.76642h.84088a.43952.43952,0,0,0,0-.879H19.945a.43952.43952,0,0,0,0,.879h.84088v.61511H18.94266a.43949.43949,0,1,0,0,.879h1.84326v.714H18.33a.40405.40405,0,1,0,0,.8081h2.45594v.66681H17.93326a.38355.38355,0,0,0,0,.76709h2.85266v.639H17.93326a.38355.38355,0,0,0,0,.76709h2.85266v.667H18.33a.40409.40409,0,0,0,0,.80817h2.45594v.71405H18.94266a.43948.43948,0,1,0,0,.879h1.84326v.61487H19.945a.43949.43949,0,0,0,0,.879h.84088v17.3836h-3.7782V49.88574a2.05466,2.05466,0,0,0,2.05469,2.05469h5.501a2.05471,2.05471,0,0,0,2.05475-2.05469V32.56823Z"/><path class="cls-2" d="M45.75632,40.70166l-.66376-1.142q-.02637-.04531-.05457-.08923V30.659a2.3363,2.3363,0,0,0-.88482-1.83276V25.57348a2.34047,2.34047,0,0,0-.94428-1.87835l-4.577-3.4018a2.34113,2.34113,0,0,0-1.65448-.44769c-2.18676.243-3.4602,2.39014-3.79846,3.04242a2.341,2.341,0,0,0-.26263,1.07727v4.86084a2.33587,2.33587,0,0,0-.88495,1.83282v8.84546l-.01654.02716-.68518,1.142a2.34038,2.34038,0,0,0-.3335,1.204v8.00806a4.4,4.4,0,0,0,4.39508,4.395h6.287a4.4,4.4,0,0,0,4.39508-4.395V41.87768A2.34019,2.34019,0,0,0,45.75632,40.70166ZM33.33645,49.88574V41.87768l.68519-1.142h9.04754l.66376,1.142v8.00806a2.05472,2.05472,0,0,1-2.05475,2.05475h-6.287A2.05477,2.05477,0,0,1,33.33645,49.88574ZM34.37167,30.659h8.326v9.46833H36.17215V31.49756h-.85156v8.62976h-.94892Zm.88489-6.69366s.86591-1.67,1.97925-1.7937l4.577,3.40185v4.5268H35.25656Z"/><path class="cls-2" d="M26.61813,30.2279H25.1802V17.085A2.79088,2.79088,0,0,0,26.367,15.46179a2.77841,2.77841,0,0,0,1.09308-2.0824,2.7306,2.7306,0,0,0,.58014-1.68567c0-.02441-.00037-.04864-.001-.07287A2.72386,2.72386,0,0,0,28.32443,9.536a2.72371,2.72371,0,0,0-.28522-2.08478c.00061-.02417.001-.04834.001-.07263a2.73064,2.73064,0,0,0-.58014-1.68573,2.7779,2.7779,0,0,0-1.093-2.08228,2.78467,2.78467,0,0,0-2.68622-2.06347H19.945a2.7848,2.7848,0,0,0-2.68616,2.06341A2.77815,2.77815,0,0,0,16.16568,5.693,2.73074,2.73074,0,0,0,15.5856,7.3786c0,.02429.00037.04858.001.07275A2.72367,2.72367,0,0,0,15.30142,9.536a2.72379,2.72379,0,0,0,.28516,2.08471c-.00061.0243-.001.04859-.001.073a2.73074,2.73074,0,0,0,.58008,1.68561,2.778,2.778,0,0,0,1.09326,2.08252A2.79056,2.79056,0,0,0,18.44559,17.085V30.2279H17.00772a2.34032,2.34032,0,0,0-2.34033,2.34033V49.88574a4.4,4.4,0,0,0,4.395,4.395h5.501a4.4,4.4,0,0,0,4.39508-4.395V32.56823A2.34032,2.34032,0,0,0,26.61813,30.2279ZM17.00772,49.88574V32.56823h3.7782V15.18463H19.945a.43949.43949,0,0,1,0-.879h.84088v-.61487H18.94266a.43948.43948,0,1,1,0-.879h1.84326v-.71405H18.33a.40409.40409,0,0,1,0-.80817h2.45594v-.667H17.93326a.38355.38355,0,0,1,0-.76709h2.85266v-.639H17.93326a.38355.38355,0,0,1,0-.76709h2.85266V7.78265H18.33a.404.404,0,1,1,0-.8081h2.45594v-.714H18.94266a.43949.43949,0,1,1,0-.879h1.84326V4.76642H19.945a.43952.43952,0,0,1,0-.879h3.73577a.43952.43952,0,0,1,0,.879h-.84088v.61511H24.6832a.43949.43949,0,0,1,0,.879H22.83993v.714h2.45588a.40405.40405,0,0,1,0,.8081H22.83993v.66681h2.8526a.38355.38355,0,1,1,0,.76709h-2.8526v.639h2.8526a.38355.38355,0,1,1,0,.76709h-2.8526v.667h2.45588a.40409.40409,0,0,1,0,.80817H22.83993v.71405H24.6832a.43948.43948,0,0,1,0,.879H22.83993v.61487h.84088a.43949.43949,0,0,1,0,.879h-.84088v17.3836h3.7782V49.88574a2.05471,2.05471,0,0,1-2.05475,2.05469h-5.501A2.05466,2.05466,0,0,1,17.00772,49.88574Z"/></svg>