<svg id="Layer_1" data-name="Layer 1" xmlns="http://www.w3.org/2000/svg" viewBox="0 0 59.5 55.65481"><defs><style>.cls-1{fill:#fff;}.cls-2{fill:#2a9bb9;}</style></defs><title>icon-hcc</title><path class="cls-1" d="M48.74771,12.24809c.03711-.03333.07342-.06763.111-.10053.08368-.07349.16858-.14508.25366-.21625.01789-.015.0354-.03058.05329-.04541.072-.05963.14447-.11731.21692-.17535.032-.02564.06384-.05219.09594-.07752.05127-.04046.10248-.07928.15381-.11889.05341-.04132.10687-.08338.16022-.12378.09051-.06854.18054-.13526.27032-.20123l.03852-.02863c.06384-.04675.12665-.09161.18969-.13709.03992-.02868.08045-.05841.11994-.0866.60693-.433,1.16644-.8039,1.57025-1.11084l.00537-.00428c.0647-.04925.12561-.097.18182-.14294l.0362-.03113c.04321-.03619.08606-.07214.12317-.1062.01355-.01245.0235-.02368.03619-.03583.03211-.03076.06458-.06158.09094-.09045.01349-.01483.02228-.0282.03418-.04254.02063-.02472.04273-.04993.05841-.07325.00959-.01422.01374-.027.02143-.04077a.46349.46349,0,0,0,.03326-.06433.23722.23722,0,0,0,.00562-.03644A.21956.21956,0,0,0,52.61593,9.1a.17233.17233,0,0,0-.011-.03137.168.168,0,0,0-.01923-.05188.26463.26463,0,0,0-.0307-.02917.27061.27061,0,0,0-.04639-.043c-.01452-.00952-.03643-.01746-.054-.02631a.61553.61553,0,0,0-.0733-.035c-.02082-.00757-.0492-.01355-.073-.02051-.03449-.01007-.0661-.02075-.10706-.0296-.03174-.00678-.07208-.012-.10785-.01807-.04187-.00708-.08-.01483-.12744-.02087-.04339-.0055-.09613-.00922-.14435-.01386-.05005-.00476-.09582-.01037-.15124-.01416-.05-.00342-.10962-.00519-.16413-.00781-.06372-.00311-.12316-.0069-.193-.00885-.06274-.00183-.13568-.00177-.20349-.00269-.0752-.001-.14526-.00287-.22687-.0028a7.83651,7.83651,0,0,0-1.572.15918c-.5603.829-1.1723,1.62176-1.72192,2.28454a11.5556,11.5556,0,0,1,.97589,1.22608C48.62485,12.35758,48.68649,12.30308,48.74771,12.24809Z"/><path class="cls-1" d="M29.05862,31.2053c-.01257-.16492-.02911-.35236-.05-.55292-.00836-.08038-.01532-.15649-.02618-.244a1.54008,1.54008,0,1,1,3.05664-.37988c.04492.35791.06934.66309.09082.9336.0791,1.00195.08887,1.13085,2.65625,3.10546,4.042,3.1084,4.98145,5.19336,5.71875,7.40674.6377,1.91309,1.02246,3.06787,4.39942,3.78614,1.4248.30371,3.19531.19433,5.541-2.89307,1.87207-2.46485.37109-6.96875-.72461-10.25733-.28711-.86132-.55371-1.56835-.78808-2.19189a12.40818,12.40818,0,0,1-1.03711-6.751c.04333-.42883.06652-.83667.08172-1.23559-.11615-1.45655-.62048-1.58124-1.24487-1.33844-.57752.22461-.70624.87433-1.15509,2.02136-.57752,1.47595-2.43842.80212-2.16815-.86414.3786-2.33422.44-2.56982-.442-2.90051-.68451-.25671-1.5531.7898-1.5531.7898-1.28339,1.21923-2.9917-.07318-1.61206-2.35126.55658-.919,1.11389-1.89056,1.67316-2.83008C42.323,13.034,46.63913,7.4174,47.33346,6.26688A7.048,7.048,0,0,0,47.959,5.03733c-1.79492-.57471-5.01074,2.12158-6.61425,3.46826-.60059.50391-15.11451,7.62134-14.54786,20.08747.08557,1.88232-1.818,2.1195-2.31012.98394-.55615-1.28338-.4176-3.3424-.6101-4.421-.14478-.81079-1.01557-.96924-1.57166.51837-.42438,1.13514-.08942,4.053.169,6.86518A35.3461,35.3461,0,0,1,22.69,36.8068c-.121,2.96649-.90973,5.04364-2.566,8.17017-.3089.58313-.675,1.22278-1.06836,1.83947,5.11957,3.017,11.37258.19819,11.37258.19819-.41658-5.89234,1.74638-7.90119,2.886-10.1858-.13288-.10565-.2638-.21044-.406-.31982C29.76858,34.09348,29.22854,33.35032,29.05862,31.2053Z"/><path class="cls-1" d="M48.56485,12.41386c.06006-.05622.12164-.11078.18286-.16577-.06122.055-.12286.10949-.18292.16571Z"/><path class="cls-1" d="M50.9017,8.744h-.01886c.08161-.00007.15167.00183.22687.0028C51.04037,8.74589,50.97653,8.744,50.9017,8.744Z"/><path class="cls-2" d="M52.86362,12.9788c1.45544-1.0105,3.44873-2.39447,2.68444-4.83545-.76873-2.45484-3.43219-2.47913-4.60894-2.47937a3.52115,3.52115,0,0,0,.15173-1.27216A2.33452,2.33452,0,0,0,50.126,2.717C46.50589.14817,41.8594,4.05051,39.36429,6.14671c-.27735.23242-.5459.458-.77149.63964C35.99612,6.5261,26.501,6.11106,18.53616,12.74387,10.11966,19.75217,7.378,25.10764,6.31155,36.6218a1.52551,1.52551,0,0,0,.02484.41675c-.142,4.16693,2.34388,12.19312,4.24775,15.38214.68444,1.2406,2.69512.89838,2.3529-1.02673-.7511-4.22473-1.96338-8.289-.55615-9.00519,2.39563-1.21924,1.05926,5.45722,3.20849,7.20844.86585.7055,2.28852-.93433,3.46631-2.78077.39337-.61669.75946-1.25634,1.06836-1.83947,1.65625-3.12653,2.44495-5.20368,2.566-8.17017a35.3461,35.3461,0,0,0-.21606-4.26727c-.25837-2.8122-.59333-5.73-.169-6.86518.55609-1.48761,1.42688-1.32916,1.57166-.51837.1925,1.07862.054,3.13764.6101,4.421.49207,1.13556,2.39569.89838,2.31012-.98394C26.23025,16.12693,40.74417,9.0095,41.34476,8.50559c1.60351-1.34668,4.81933-4.043,6.61425-3.46826a7.048,7.048,0,0,1-.62555,1.22955C46.63913,7.4174,42.323,13.034,41.47519,14.45835c-.55927.93952-1.11658,1.91107-1.67316,2.83008-1.37964,2.27808.32867,3.57049,1.61206,2.35126,0,0,.86859-1.04651,1.5531-.7898.882.33069.82056.56629.442,2.90051-.27027,1.66626,1.59063,2.34009,2.16815.86414.44885-1.147.57757-1.79675,1.15509-2.02136.62439-.2428,1.12872-.11811,1.24487,1.33844-.0152.39892-.03839.80676-.08172,1.23559a12.40818,12.40818,0,0,0,1.03711,6.751c.23437.62354.501,1.33057.78808,2.19189,1.0957,3.28858,2.59668,7.79248.72461,10.25733-2.3457,3.0874-4.11621,3.19678-5.541,2.89307-3.377-.71827-3.76172-1.873-4.39942-3.78614-.7373-2.21338-1.67676-4.29834-5.71875-7.40674-2.56738-1.97461-2.57715-2.10351-2.65625-3.10546-.02148-.27051-.0459-.57569-.09082-.9336a1.54008,1.54008,0,1,0-3.05664.37988c.01086.08747.01782.16358.02618.244.02088.20056.03742.388.05.55292.16992,2.145.71,2.88818,3.84961,5.30371.14221.10938.27313.21417.406.31982,3.01037,2.39283,3.67956,3.85193,4.2688,5.61915.8955,2.686,1.95605,4.82031,6.68066,5.82519a7.72887,7.72887,0,0,0,1.61133.17529c2.56543,0,4.876-1.3916,7.02344-4.21777,2.85546-3.75977,1.05664-9.15479-.25586-13.09473-.30176-.90429-.58008-1.647-.82618-2.30127A9.48982,9.48982,0,0,1,50.96,23.47678a17.86917,17.86917,0,0,0-.89459-8.16742A13.92421,13.92421,0,0,1,52.86362,12.9788ZM47.5889,11.18772c.54962-.66278,1.16162-1.45557,1.72192-2.28454a7.83651,7.83651,0,0,1,1.572-.15918h.01886c.07483,0,.13867.00189.208.0028.06781.00092.14075.00086.20349.00269.06989.002.12933.00574.193.00885.05451.00262.11408.00439.16413.00781.05542.00379.10119.0094.15124.01416.04822.00464.101.00836.14435.01386.04743.006.08557.01379.12744.02087.03577.006.07611.01129.10785.01807.041.00885.07257.01953.10706.0296.0238.007.05218.01294.073.02051a.61553.61553,0,0,1,.0733.035c.01758.00885.03949.01679.054.02631a.27061.27061,0,0,1,.04639.043.26463.26463,0,0,1,.0307.02917.168.168,0,0,1,.01923.05188.17233.17233,0,0,1,.011.03137.21956.21956,0,0,1-.00811.0578.23722.23722,0,0,1-.00562.03644.46349.46349,0,0,1-.03326.06433c-.00769.01374-.01184.02655-.02143.04077-.01568.02332-.03778.04853-.05841.07325-.0119.01434-.02069.02771-.03418.04254-.02636.02887-.05883.05969-.09094.09045-.01269.01215-.02264.02338-.03619.03583-.03711.03406-.08.07-.12317.1062l-.0362.03113c-.05621.046-.11712.09369-.18182.14294l-.00537.00428c-.40381.30694-.96332.67779-1.57025,1.11084-.03949.02819-.08.05792-.11994.0866-.063.04548-.12585.09034-.18969.13709l-.03852.02863c-.08978.066-.17981.13269-.27032.20123-.05335.0404-.10681.08246-.16022.12378-.05133.03961-.10254.07843-.15381.11889-.0321.02533-.0639.05188-.09594.07752-.07245.058-.145.11572-.21692.17535-.01789.01483-.0354.03046-.05329.04541-.08508.07117-.17.14276-.25366.21625-.03754.0329-.07385.0672-.111.10053-.06122.055-.1228.10955-.18286.16577l-.00006-.00006A11.5556,11.5556,0,0,0,47.5889,11.18772Z"/></svg>