<svg id="Layer_1" data-name="Layer 1" xmlns="http://www.w3.org/2000/svg" viewBox="0 0 59.5 55.65481"><defs><style>.cls-1{fill:#fff;}.cls-2{fill:#2e9bb9;}</style></defs><title>icon-hcc</title><path class="cls-1" d="M31.99588,3.6766H18.73632l1.02754,49.06034h5.28749s2.43558-37.629,4.99523-37.629,4.99521,37.629,4.99521,37.629h5.28745L41.35679,3.6766Z"/><circle class="cls-2" cx="30.04655" cy="5.07838" r="1.02966"/><path class="cls-1" d="M23.75078,7.30458a10.1276,10.1276,0,0,1-5.77529,3.97854"/><path class="cls-1" d="M35.835,7.30458a10.1276,10.1276,0,0,0,5.7753,3.97854"/><path class="cls-2" d="M43.02884,2.03918a2.34018,2.34018,0,0,0-1.67206-.70288H18.7363a2.34034,2.34034,0,0,0-2.33979,2.38928L17.4241,52.78594a2.34026,2.34026,0,0,0,2.33978,2.29126h5.28748a2.34024,2.34024,0,0,0,2.33539-2.18909c.66559-10.28076,1.67132-21.355,2.65509-28.56195.88611,6.38355,1.87286,16.33045,2.66455,28.56189a2.34024,2.34024,0,0,0,2.33539,2.18915h5.28747A2.34027,2.34027,0,0,0,42.669,52.78594L43.69656,3.72558A2.34008,2.34008,0,0,0,43.02884,2.03918ZM35.04178,52.73693S32.60623,15.108,30.0466,15.108s-4.99524,37.629-4.99524,37.629H19.76388l-.86346-41.22327a10.27966,10.27966,0,0,0,5.2959-3.95306.51359.51359,0,0,0-.89063-.51172,9.27778,9.27778,0,0,1-4.42822,3.3678L18.7363,3.67657H41.35678l-.14514,6.93127a9.57919,9.57919,0,0,1-4.93231-3.56042.51353.51353,0,0,0-.88965.51318,10.50635,10.50635,0,0,0,5.79944,4.1225l-.85987,41.05383Z"/></svg>