<svg id="95fc114c-b2f5-4745-8b50-bbde9043d972" data-name="Layer 1" xmlns="http://www.w3.org/2000/svg" viewBox="0 0 47.65283 47.51538"><title>Artboard 1 copy 9</title><path d="M16.0871,26.35348H12.6289a3.17222,3.17222,0,1,0,0,6.34445H17.401a3.172,3.172,0,0,0,2.24327-.92936l2.08807-2.08817-4.486-4.48614Z" fill="#fff"/><path d="M39.98389,17.39209l-5.13879-4.55426a.6348.6348,0,0,0-1.05585.4751v1.38672H29.05438a3.17207,3.17207,0,0,0-2.24329.92938L24.723,17.71722l4.48608,4.48615,1.15918-1.15924h3.421v1.37732a.6348.6348,0,0,0,1.05585.4751l5.13879-4.55426A.63482.63482,0,0,0,39.98389,17.39209Z" fill="#fff"/><path d="M39.98389,29.0351l-5.13879-4.55426a.63481.63481,0,0,0-1.05585.4751v1.39752h-3.421l-1.15918-1.15924-1.49536-1.49542-4.486-4.48627L21.73224,17.7171l-2.088-2.08807a3.17207,3.17207,0,0,0-2.24329-.92938H12.62891a3.17224,3.17224,0,1,0,0,6.34448H16.0871l1.15924,1.15924,1.49536,1.49542,4.486,4.48627,1.49542,1.49542,2.088,2.08807a3.17207,3.17207,0,0,0,2.24329.92938h4.73486v1.36652a.63479.63479,0,0,0,1.05585.4751l5.13879-4.55426A.63482.63482,0,0,0,39.98389,29.0351Z" fill="#fff"/><path d="M23.82617,47.51538A23.82642,23.82642,0,1,1,47.65283,23.68823,23.85349,23.85349,0,0,1,23.82617,47.51538Zm0-46.40039A22.57422,22.57422,0,1,0,46.40088,23.68823,22.59921,22.59921,0,0,0,23.82617,1.115Z" fill="#fff"/></svg>