<svg id="Layer_1" data-name="Layer 1" xmlns="http://www.w3.org/2000/svg" viewBox="0 0 59.5 55.65481"><defs><style>.cls-1{fill:none;}.cls-2{fill:#fff;}.cls-3{fill:#2e9bb9;}</style></defs><title>icon-hcc</title><path class="cls-1" d="M51.40878,40.7438c.0509.07721.09625.16369.14221.249C51.505,40.90756,51.45962,40.821,51.40878,40.7438Z"/><path class="cls-1" d="M51.1376,40.4031a2.26243,2.26243,0,0,1,.16095.19708A2.27348,2.27348,0,0,0,51.1376,40.4031Z"/><path class="cls-1" d="M50.42282,39.93954a1.87262,1.87262,0,0,1,.22021.10223A1.88235,1.88235,0,0,0,50.42282,39.93954Z"/><path class="cls-1" d="M50.81283,40.13345a1.8401,1.8401,0,0,1,.18689.14886A1.84536,1.84536,0,0,0,50.81283,40.13345Z"/><path class="cls-1" d="M51.83523,41.61721c.06006.16077.11719.33014.17279.50757C51.95242,41.94741,51.89529,41.778,51.83523,41.61721Z"/><path class="cls-1" d="M51.6376,41.15029c.048.09973.09155.20893.13532.31781C51.72922,41.35928,51.68551,41.25,51.6376,41.15029Z"/><path class="cls-1" d="M52.01254,42.13821v-.00006a4.18393,4.18393,0,0,1-.46942.39489A4.18938,4.18938,0,0,0,52.01254,42.13821Z"/><path class="cls-1" d="M49.95651,39.82681a2.36386,2.36386,0,0,1,.261.05529A2.38419,2.38419,0,0,0,49.95651,39.82681Z"/><path class="cls-1" d="M48.55325,39.78024c.09162.00811.18427.01226.27637.01556C48.73733,39.7925,48.64511,39.78835,48.55325,39.78024Z"/><path class="cls-1" d="M45.377,38.801c.09015.04.17627.07593.26422.11407C45.553,38.87673,45.46756,38.84121,45.377,38.801Z"/><path class="cls-1" d="M44.63705,38.46621c.0813.03729.158.07141.23737.10761C44.79446,38.53738,44.719,38.50381,44.63705,38.46621Z"/><path class="cls-1" d="M22.825,10.103l-.068-.01886.06805.01984Z"/><path class="cls-1" d="M46.06656,39.09652c.09192.03784.181.071.27093.10626C46.24728,39.16744,46.15872,39.13442,46.06656,39.09652Z"/><path class="cls-1" d="M46.71585,39.34707c.09265.03326.18371.06165.27478.09167C46.89926,39.40865,46.80874,39.38046,46.71585,39.34707Z"/><path class="cls-1" d="M47.95016,39.6954c.09088.0177.18213.031.27277.04443C48.13211,39.7264,48.04123,39.71316,47.95016,39.6954Z"/><path class="cls-1" d="M51.54312,42.533c-.15869.11847-.3587.25666-.60162.40473C51.18442,42.7897,51.38443,42.65151,51.54312,42.533Z"/><path class="cls-1" d="M49.52347,39.79183q-.10905,0-.22522.00641a3.49176,3.49176,0,0,1,.41217.00873C49.6467,39.80331,49.591,39.79183,49.52347,39.79183Z"/><path class="cls-1" d="M47.34054,39.54885c.0915.02619.18256.04767.27308.07007C47.52286,39.5964,47.43222,39.57516,47.34054,39.54885Z"/><path class="cls-1" d="M23.03482,50.64718c-.12531.00684-.26026.01355-.41077.0188C22.775,50.66067,22.90921,50.65408,23.03482,50.64718Z"/><path class="cls-1" d="M19.48465,9.56661c-.23993.00006-.47742.01068-.70978.03339.23657-.02307.478-.03326.72235-.0329Z"/><path class="cls-1" d="M50.9415,42.93777a10.07177,10.07177,0,0,1-1.38886.69964A10.07177,10.07177,0,0,0,50.9415,42.93777Z"/><path class="cls-1" d="M16.95059,45.37771c-.03473-.39484-.05994-.82483-.0625-1.25482C16.89065,44.55288,16.9158,44.98287,16.95059,45.37771Z"/><path class="cls-1" d="M21.89133,50.679c.04583,0,.08807-.001.13287-.00128-.08154.00055-.16889-.00086-.25379-.00135C21.80942,50.6766,21.853,50.679,21.89133,50.679Z"/><path class="cls-1" d="M21.26767,9.74044c.14862.02631.29724.052.44531.08331C21.56473,9.79244,21.41647,9.76675,21.26767,9.74044Z"/><path class="cls-1" d="M22.01968,9.89437c.14368.03357.28748.067.42969.10437C22.307,9.96133,22.1636,9.92794,22.01968,9.89437Z"/><path class="cls-1" d="M19.674,9.5743c.184.00415.36841.01.55493.02546C20.04239,9.58431,19.858,9.57845,19.674,9.5743Z"/><path class="cls-1" d="M22.62405,50.666c-.1449.00513-.30414.0083-.46777.0105C22.32022,50.67434,22.47891,50.67111,22.62405,50.666Z"/><path class="cls-1" d="M20.49521,9.63c.158.01727.316.03393.47467.058C20.81112,9.6639,20.65335,9.64718,20.49521,9.63Z"/><path class="cls-1" d="M21.21506,50.66421c-.07752-.00275-.15448-.00525-.23328-.00916C21.06149,50.659,21.13669,50.6614,21.21506,50.66421Z"/><path class="cls-1" d="M38.20175,6.167l.05267.02967Z"/><path class="cls-1" d="M41.24808,47.54739c.0617.165.12036.33862.17742.52124C41.36844,47.88607,41.30978,47.71243,41.24808,47.54739Z"/><path class="cls-1" d="M48.28811,44.07919a14.02151,14.02151,0,0,1-1.54693.3529A14.02151,14.02151,0,0,0,48.28811,44.07919Z"/><path class="cls-1" d="M49.55264,43.63741a12.1497,12.1497,0,0,1-1.26453.44178A12.16368,12.16368,0,0,0,49.55264,43.63741Z"/><path class="cls-1" d="M41.0505,47.08053c.04847.10083.0926.21118.13678.32135C41.1431,47.29177,41.099,47.18136,41.0505,47.08053Z"/><path class="cls-1" d="M23.73556,50.59579l-.05914.00567Z"/><path class="cls-1" d="M23.4299,50.62209c-.0827.00623-.18762.01294-.29828.0196C23.24325,50.635,23.34659,50.62838,23.4299,50.62209Z"/><path class="cls-1" d="M23.64047,50.6047c-.05164.00464-.11981.01062-.21057.01739C23.52273,50.61514,23.58865,50.6094,23.64047,50.6047Z"/><path class="cls-1" d="M31.8547,3.81c.14862.02631.29725.052.44532.08331C32.15176,3.862,32.00351,3.83627,31.8547,3.81Z"/><path class="cls-1" d="M33.344,4.15365c.13861.03918.277.07849.41333.12042C33.62088,4.23208,33.48288,4.19289,33.344,4.15365Z"/><path class="cls-1" d="M37.0292,5.56643c.09461.04529.18225.08813.2674.13013C37.21091,5.65426,37.12454,5.61208,37.0292,5.56643Z"/><path class="cls-1" d="M36.542,5.33962c.10535.04785.20551.09424.30292.14C36.74685,5.43362,36.64792,5.38778,36.542,5.33962Z"/><path class="cls-1" d="M37.448,5.7712c.08136.04077.15368.07782.22387.114C37.60116,5.84878,37.53012,5.81234,37.448,5.7712Z"/><path class="cls-1" d="M32.60672,3.96389c.14367.03357.28747.067.42969.10437C32.894,4.03085,32.75064,3.99746,32.60672,3.96389Z"/><path class="cls-1" d="M34.74136,4.60464c.12879.04675.25617.09381.38062.14148C34.9971,4.69833,34.87051,4.65151,34.74136,4.60464Z"/><path class="cls-1" d="M35.39017,4.85061q.18155.072.35553.144C35.62948,4.94643,35.51169,4.89883,35.39017,4.85061Z"/><path class="cls-1" d="M31.08224,3.69949c.158.01727.316.03393.47467.058C31.39816,3.73342,31.24039,3.7167,31.08224,3.69949Z"/><path class="cls-1" d="M40.96445,46.92422c-.01709-.03168-.03406-.0636-.05176-.09412l-.00214-.00024C40.92868,46.86105,40.947,46.89187,40.96445,46.92422Z"/><path class="cls-1" d="M34.05673,4.36965c.13446.0437.26813.08777.39929.13336C34.32461,4.45736,34.1915,4.41348,34.05673,4.36965Z"/><path class="cls-1" d="M38.04111,6.07888c.05218.02826.09033.04932.12353.06769C38.13113,6.128,38.09414,6.10757,38.04111,6.07888Z"/><path class="cls-1" d="M30.07168,3.63613c-.23993.00006-.47741.01068-.70977.03339.23657-.02307.478-.03327.72235-.0329Z"/><path class="cls-1" d="M30.261,3.64382c.184.00415.3684.01.55493.02545C30.62942,3.65383,30.445,3.648,30.261,3.64382Z"/><path class="cls-1" d="M35.99289,5.09823q.17028.07269.3305.14386C36.21585,5.19442,36.1069,5.14687,35.99289,5.09823Z"/><path class="cls-1" d="M37.79019,5.94589c.06781.0354.12476.06573.17847.09448C37.91427,6.01125,37.85916,5.9819,37.79019,5.94589Z"/><path class="cls-2" d="M25.95492,11.2701c.10535.04786.20551.09424.30292.14C26.15982,11.3641,26.06088,11.31826,25.95492,11.2701Z"/><path class="cls-2" d="M26.44217,11.49691c.0946.04529.18225.08814.26739.13013C26.62387,11.58474,26.5375,11.54257,26.44217,11.49691Z"/><path class="cls-2" d="M26.861,11.70168c.08136.04078.15369.07782.22388.114C27.01413,11.77926,26.94308,11.74282,26.861,11.70168Z"/><path class="cls-2" d="M27.45407,12.00936c.05218.02826.09033.04932.12353.06769C27.5441,12.0585,27.50711,12.03805,27.45407,12.00936Z"/><path class="cls-2" d="M30.00686,36.96139a4.45724,4.45724,0,0,0,1.31019,2.82287,12.71586,12.71586,0,0,1-.17054-1.975c0-.41083-.00256-.80194-.01159-1.19751l-.00013-.00073.00013-.00061A47.2382,47.2382,0,0,0,29.96676,28.097C29.96493,32.16073,29.974,35.73373,30.00686,36.96139Z"/><path class="cls-2" d="M25.40585,11.02871q.1703.07269.33051.14386C25.62881,11.1249,25.51987,11.07736,25.40585,11.02871Z"/><path class="cls-2" d="M28.3912,9.85494c.21515.11481.37067.202.44135.24256a2.34014,2.34014,0,0,1,1.17511,2.03973c-.00043.10272-.02155,5.04743-.03333,10.53522.21637,1.42346.43775,2.72626.65851,3.80865A58.12076,58.12076,0,0,1,32.093,36.162c.02.00189.04064.00281.06048.00488l4.26978-3.55047c-.0033-.047-.01209-.09668-.01209-.14215A1.88746,1.88746,0,0,1,38.21292,30.61c.01117-.00055.02081.00409.0318.00421-.07611-4.59228.0097-24.4176.0097-24.4176L38.20175,6.167l-.03711-.02038c-.0332-.01837-.07135-.03943-.12353-.06769l-.07245-.03851c-.05371-.02875-.11066-.05908-.17847-.09448-.0354-.0185-.07922-.04059-.11829-.06073-.07019-.03614-.14251-.07319-.22387-.114-.04712-.02362-.10077-.04968-.15143-.07464-.08515-.042-.17279-.08484-.2674-.13013-.05859-.02808-.12225-.05768-.18432-.08679-.09741-.04578-.19757-.09217-.30292-.14-.07056-.032-.14471-.06482-.21857-.09753q-.16058-.07123-.3305-.14386c-.08063-.03442-.16358-.06891-.24719-.10364q-.17368-.072-.35553-.144-.13212-.05245-.26819-.10449c-.12445-.04767-.25183-.09473-.38062-.14148-.09424-.03424-.189-.06818-.28534-.10163-.13116-.04559-.26483-.08966-.39929-.13336-.0993-.03228-.19849-.06457-.29938-.09558-.13629-.04193-.27472-.08124-.41333-.12042-.10235-.02887-.20422-.05823-.30761-.08539-.14222-.03735-.286-.0708-.42969-.10437-.10217-.02386-.204-.04889-.3067-.07062-.14807-.03131-.2967-.057-.44532-.08331-.09924-.01752-.19848-.03735-.29779-.05243-.15863-.02411-.31665-.04077-.47467-.058-.08874-.00971-.17791-.02289-.26629-.03022-.18653-.0155-.371-.0213-.55493-.02545-.05866-.00128-.11841-.00714-.17676-.0072-.24439-.00037-.48578.00983-.72235.0329a5.83154,5.83154,0,0,0-1.57587.39325.44755.44755,0,0,1,.04114.13025C27.83249,4.25289,28.04861,6.60629,28.3912,9.85494Z"/><path class="cls-2" d="M34.05978,44.40115c.06214.0285.12061.05438.18164.08227C34.18,44.45535,34.12234,44.42989,34.05978,44.40115Z"/><path class="cls-2" d="M37.38186,32.47427a5.16352,5.16352,0,0,0,.31739,1.28711c.41992,1.28808.99316,3.05371-.541,4.03613a2.49266,2.49266,0,0,1-1.37305.42969,4.506,4.506,0,0,1-1.7998-.51172,6.399,6.399,0,0,0-1.87122-.58118c.002.22174.00306.44489.00306.67493A13.854,13.854,0,0,0,32.5231,40.866a9.85894,9.85894,0,0,0,1.73444,1.05048l.42718.19629a10.30068,10.30068,0,0,0,3.74194,1.28357q.077,0,.15455-.00428c.12194-.00683.24054-.01007.35516-.01007a4.3643,4.3643,0,0,1,3.19977,1.21967c.53051.03888,1.10034.06366,1.7334.06366a17.04985,17.04985,0,0,0,2.87164-.23322,14.02151,14.02151,0,0,0,1.54693-.3529,12.1497,12.1497,0,0,0,1.26453-.44178,10.07177,10.07177,0,0,0,1.38886-.69964c.24292-.14807.44293-.28626.60162-.40473a4.18393,4.18393,0,0,0,.46942-.39489l-.00452-.01337c-.0556-.17743-.11273-.3468-.17279-.50757-.01965-.05249-.04193-.09845-.06231-.14911-.04377-.10888-.08734-.21808-.13532-.31781-.02691-.056-.058-.10449-.08661-.15747-.046-.08533-.09131-.17181-.14221-.249-.03412-.05176-.07355-.0957-.11023-.14362a2.26243,2.26243,0,0,0-.16095-.19708c-.04266-.04443-.09167-.08093-.13788-.12079a1.8401,1.8401,0,0,0-.18689-.14886,3.605,3.605,0,0,0-.39-.19391c-.06427-.02344-.13568-.03961-.20532-.05744a2.36386,2.36386,0,0,0-.261-.05529c-.07764-.01093-.16217-.01508-.24609-.01984a3.49176,3.49176,0,0,0-.41217-.00873q-.14319.008-.28449.00788c-.06183,0-.12268-.00812-.18414-.01032-.0921-.0033-.18475-.00745-.27637-.01556-.11-.00971-.22052-.02411-.33032-.04041-.09064-.01343-.18189-.02673-.27277-.04443-.11145-.02167-.22418-.04871-.33654-.07648-.09052-.0224-.18158-.04388-.27308-.07007-.11511-.033-.23285-.07147-.34991-.11011-.09107-.03-.18213-.05841-.27478-.09167-.1236-.04437-.25147-.09448-.37836-.14429-.09-.03528-.179-.06842-.27093-.10626-.13806-.05682-.28217-.11938-.4253-.18146-.08795-.03814-.17407-.074-.26422-.11407-.16217-.072-.33258-.14966-.50262-.22717-.07941-.0362-.15607-.07032-.23737-.10761q-.3696-.16956-.76751-.35272a11.89334,11.89334,0,0,1-3.61512-2.59735,8.57092,8.57092,0,0,1-1.109-1.46717,6.78265,6.78265,0,0,1-.53082-1.10974,5.88032,5.88032,0,0,1-.30652-1.20733c-.0072-.05054-.0072-.1034-.013-.15442A.93364.93364,0,0,0,37.38186,32.47427Z"/><path class="cls-2" d="M26.88022,4.49569A6.55865,6.55865,0,0,0,24.9628,6.19662c.027.75323.06524,1.46466.10388,2.174.88306.32422,1.66882.66778,2.29419.96582C27.1094,6.92416,26.93631,5.09774,26.88022,4.49569Z"/><path class="cls-2" d="M27.20315,11.87637c.06781.0354.12476.06573.17847.09448C27.32724,11.94174,27.27212,11.91238,27.20315,11.87637Z"/><path class="cls-2" d="M27.65921,12.12246l-.0445-.025.0445.025Z"/><path class="cls-2" d="M36.63479,36.97915c.83985-.53711.60157-1.50391.14161-2.918a6.47545,6.47545,0,0,1-.35315-1.44476l-4.26978,3.55047a7.28637,7.28637,0,0,1,2.22351.66089C35.376,37.26821,35.88968,37.45767,36.63479,36.97915Z"/><path class="cls-2" d="M20.04593,32.41177a58.12019,58.12019,0,0,1,1.46014,9.68091c.0199.00189.04047.00274.06018.00482l3.60034-2.99384a14.78669,14.78669,0,0,1-.01336-1.68152,6.30563,6.30563,0,0,1,.91644-2.73138,4.47,4.47,0,0,0,.684-3.07135,25.03486,25.03486,0,0,0-.8161-3.45538A83.08186,83.08186,0,0,1,22.825,10.104l-.06805-.01984c-.10236-.02887-.20423-.05823-.30762-.08539-.14221-.03735-.286-.0708-.42969-.10437-.10217-.02386-.204-.04889-.3067-.07062-.14807-.03131-.29669-.057-.44531-.08331-.09925-.01752-.19849-.03735-.29779-.05243-.15863-.02411-.31665-.04077-.47467-.058-.08875-.00971-.17792-.02289-.2663-.03021-.18652-.01551-.371-.02131-.55493-.02546-.05866-.00128-.11841-.00714-.17676-.0072-.24438-.00036-.48578.00983-.72235.0329a5.8318,5.8318,0,0,0-1.575.39294.46261.46261,0,0,1,.0404.13074C17.25393,10.278,18.66311,25.63638,20.04593,32.41177Z"/><path class="cls-2" d="M17.18368,50.0342a17.43119,17.43119,0,0,0,2.99512.56159c.2702.02844.53906.04614.803.05926.0788.00391.15576.00641.23328.00916.19018.00677.37634.01111.55535.01214.0849.00049.17225.0019.25379.00135.04455-.00031.08868-.00061.13208-.00122.16363-.0022.32287-.00537.46777-.0105.15051-.00525.28546-.012.41077-.0188l.0968-.00549c.11066-.00666.21558-.01337.29828-.0196.09076-.00677.15893-.01275.21057-.01739l.03595-.00324.05914-.00567.03681-.6991a23.2181,23.2181,0,0,1-6.58869-1.30353Z"/><path class="cls-2" d="M34.01694,44.69161c-.08271.00623-.18763.01294-.29828.0196C33.83029,44.70455,33.93362,44.6979,34.01694,44.69161Z"/><path class="cls-2" d="M20.5596,43.73989c0-.41083-.00256-.80194-.0116-1.19751l-.00012-.00073L20.548,42.541c-.04651-2.03821-.28393-4.20636-1.45324-9.93591-1.304-6.38861-2.62543-20.29187-2.8014-22.17908a6.55833,6.55833,0,0,0-1.9176,1.70105c.56159,15.63086,3.7439,21.62109,4.11829,25.17779q.03505.33344.04486.637a7.17871,7.17871,0,0,1-.04468,1.10949,6.04065,6.04065,0,0,1-.18445.923c-.03979.14044-.08349.27484-.13.40393a7.24521,7.24521,0,0,1-.30579.71734c-.05408.11115-.10919.21863-.16412.32331-.10993.20929-.21955.40729-.321.60052a3.53485,3.53485,0,0,0-.4859,1.46295c-.01172.21058-.01611.42554-.01483.64051.00256.43.02777.86.0625,1.25482.08679.98718.23309,1.75494.23309,1.75494v.43109a26.47657,26.47657,0,0,0,4.26545,1.126A17.54225,17.54225,0,0,1,20.5596,43.73989Z"/><path class="cls-2" d="M31.80221,44.73373c-.07757-.00275-.1546-.00525-.23346-.00916C31.64853,44.72854,31.72378,44.73092,31.80221,44.73373Z"/><path class="cls-2" d="M33.21078,44.7355c-.14477.00506-.30407.00836-.46747.0105C32.90713,44.74386,33.0657,44.74062,33.21078,44.7355Z"/><path class="cls-2" d="M32.47836,44.7485c.04584,0,.08807-.001.13287-.00128-.0816.00055-.16888-.00086-.25378-.00135C32.39645,44.74612,32.44,44.7485,32.47836,44.7485Z"/><path class="cls-2" d="M33.62185,44.7167c-.12506.00683-.25976.01349-.40991.01874C33.36252,44.73013,33.49649,44.7236,33.62185,44.7167Z"/><polygon class="cls-2" points="34.33 44.524 34.33 44.524 34.323 44.665 34.33 44.524"/><path class="cls-2" d="M34.22751,44.67422c-.05164.00464-.11982.01062-.21057.01739C34.10977,44.68466,34.17569,44.67892,34.22751,44.67422Z"/><path class="cls-2" d="M27.77072,41.20217a19.73083,19.73083,0,0,1-.27637-2.36914,19.73289,19.73289,0,0,0,.27637,2.3692Z"/><path class="cls-2" d="M36.4122,45.71981a2.34038,2.34038,0,0,1-1.84461,1.27295c-.03729.00391-.926.09607-2.08923.09607a18.83335,18.83335,0,0,1-1.95746-.09607,19.50647,19.50647,0,0,1-3.43841-.65222,2.33846,2.33846,0,0,1-1.649-2.19928c-.07886.008-.158.0166-.23523.0166a4.50134,4.50134,0,0,1-1.7998-.51172,6.39933,6.39933,0,0,0-1.87122-.58117c.002.22174.00305.44488.00305.67492a17.5121,17.5121,0,0,0,.99237,5.09937c.433.04767.86823.07831,1.30072.087l.00574-.10888c2.52716,0,3.7439,1.77838,9.45337,1.77838s8.143-2.52716,8.143-2.52716c-.05706-.18262-.11572-.3562-.17742-.52124-.01917-.05121-.041-.09607-.0608-.14551-.04418-.11017-.08831-.22052-.13678-.32135-.02673-.0556-.05773-.10364-.08605-.15631-.01746-.03235-.03577-.06317-.0539-.09436A19.58281,19.58281,0,0,1,36.4122,45.71981Z"/><path class="cls-2" d="M34.3226,44.66531l-.05914.00567Z"/><path class="cls-2" d="M27.49,37.5519a12.08858,12.08858,0,0,0,.00439,1.28113,19.73083,19.73083,0,0,0,.27637,2.36914v.43a27.72205,27.72205,0,0,0,3.06189.8863c-.25073-.20075-.4986-.4115-.73688-.63874A7.31232,7.31232,0,0,1,27.708,37.508a1.37575,1.37575,0,0,0-.218.04309Z"/><path class="cls-2" d="M34.05978,44.40115c-.24957-.11444-.50781-.23365-.77728-.35718-.11816-.0542-.2406-.11481-.36389-.17719a25.47,25.47,0,0,1-5.14789-1.20416v1.4411a17.43119,17.43119,0,0,0,2.99518.56159c.27014.02844.53894.04614.80285.05926.07886.00391.15589.00641.23346.00916.19013.00677.37622.01111.55524.01214.0849.00049.17218.0019.25378.00135.04456-.00031.08869-.00061.13208-.00122.1634-.00214.3227-.00544.46747-.0105l.00116-.00006c.15015-.00525.28485-.01191.40991-.01874l.09681-.00549c.11065-.00666.21557-.01337.29828-.0196.09075-.00677.15893-.01275.21057-.01739l.03595-.00324.05914-.00567.00745-.14167-.08863-.04022C34.18039,44.45553,34.12192,44.42965,34.05978,44.40115Z"/><path class="cls-2" d="M27.62881,25.45858c.00867-6.17566.03534-12.555.03833-13.26465l-.00793-.07147-.0445-.025-.03711-.02039c-.0332-.01837-.07135-.03943-.12353-.06769l-.07245-.03851c-.05371-.02875-.11066-.05908-.17847-.09448-.0354-.0185-.07922-.04059-.11828-.06073-.07019-.03614-.14252-.07318-.22388-.114-.04712-.02362-.10077-.04968-.15143-.07464-.08514-.042-.17279-.08484-.26739-.13013-.0586-.02808-.12226-.05768-.18433-.08679-.09741-.04578-.19757-.09216-.30292-.14-.07055-.032-.14471-.06481-.21856-.09753q-.16059-.07123-.33051-.14386c-.05481-.02344-.11188-.04694-.16809-.07043A79.09028,79.09028,0,0,0,27.62881,25.45858Z"/><path class="cls-2" d="M34.3226,44.66531l-.05914.00567-.03595.00324c-.05182.0047-.11774.01044-.21057.01739-.08332.00629-.18665.01294-.29828.0196l-.09681.00549c-.12536.0069-.25933.01343-.40991.01874l-.00116.00006c-.14508.00512-.30365.00836-.46747.0105l-.13208.00122c-.0448.0003-.087.00128-.13287.00128-.03833,0-.08191-.00238-.12091-.00263-.17987-.001-.36407-.00531-.55524-.01214-.07843-.00281-.15368-.00519-.23346-.00916-.26428-.01312-.53228-.03076-.80285-.05926a17.43119,17.43119,0,0,1-2.99518-.56159v-1.4411c-.11005-.03772-.21362-.07355-.30774-.10712a2.02242,2.02242,0,0,1-.89166,1.17267,2.55517,2.55517,0,0,1-1.13782.41309,2.33846,2.33846,0,0,0,1.649,2.19928,19.50647,19.50647,0,0,0,3.43841.65222,18.83335,18.83335,0,0,0,1.95746.09607c1.16321,0,2.05194-.09216,2.08923-.09607a2.34038,2.34038,0,0,0,1.84461-1.27295,19.58281,19.58281,0,0,0,4.49835,1.11c-.02978-.05145-.057-.10736-.0888-.15558-.034-.05164-.07337-.0954-.10993-.14319a2.28115,2.28115,0,0,0-.16144-.19763c-.04254-.04425-.09131-.08063-.13739-.12042a1.83825,1.83825,0,0,0-.18725-.14911,3.59343,3.59343,0,0,0-.38971-.19385c-.06464-.02362-.13642-.03986-.20661-.0578a2.35541,2.35541,0,0,0-.25946-.05493c-.07806-.01105-.16321-.01526-.24768-.02a3.4802,3.4802,0,0,0-.40991-.00867l-.00122.00006c-.0954.00531-.19006.00788-.28449.00788-.06219,0-.12341-.00818-.1853-.01044-.09137-.0033-.18329-.00739-.27417-.01538-.11084-.00977-.22217-.02429-.33282-.04071-.08979-.01337-.18036-.02655-.27045-.04407-.11237-.02185-.226-.049-.33929-.07709-.0896-.02221-.17969-.04345-.27021-.06933-.11584-.03321-.23431-.07184-.35223-.11078-.09045-.02985-.18091-.05805-.27283-.09107-.12549-.045-.25519-.09588-.384-.14648-.08771-.03442-.17444-.06665-.264-.10352-.1427-.05871-.2915-.12323-.43957-.18756-.083-.03607-.16388-.06976-.24872-.10742-.14942-.06634-.307-.13806-.463-.20911Z"/><path class="cls-2" d="M27.77072,41.20223a19.73289,19.73289,0,0,1-.27637-2.3692A12.08858,12.08858,0,0,1,27.49,37.5519l.00012-.00079a.85737.85737,0,0,0-.69513.85382,5.1482,5.1482,0,0,0,.31738,1.28613,8.40406,8.40406,0,0,1,.44043,1.86322c.06427.02344.141.05066.218.07788Z"/><path class="cls-2" d="M25.93753,28.164a25.03486,25.03486,0,0,1,.8161,3.45538,4.47,4.47,0,0,1-.684,3.07135,6.30563,6.30563,0,0,0-.91644,2.73138,14.78669,14.78669,0,0,0,.01336,1.68152l.66968-.55688c-.00323-.04688-.012-.0965-.012-.14185A1.8867,1.8867,0,0,1,27.625,36.54067c.01141-.00049.02142.00428.03265.00446-.03161-1.90674-.0354-6.43433-.02887-11.08655a79.09028,79.09028,0,0,1-2.391-14.5003l-.0791-.03321q-.17367-.072-.35553-.144-.1321-.05246-.26819-.10449c-.12445-.04767-.25183-.09473-.38061-.14148-.09424-.03424-.189-.06818-.28534-.10162-.13117-.0456-.26484-.08967-.3993-.13337-.0993-.03228-.19848-.06457-.29937-.09558-.11383-.035-.22974-.06744-.34528-.10058A83.08186,83.08186,0,0,0,25.93753,28.164Z"/><path class="cls-2" d="M34.26346,44.671l-.03595.00324Z"/><path class="cls-2" d="M32.74331,44.746c-.04339.00061-.08752.00091-.13208.00122Z"/><path class="cls-2" d="M33.21194,44.73544l-.00116.00006Z"/><path class="cls-2" d="M33.71866,44.71121l-.09681.00549Z"/><path class="cls-2" d="M31.56875,44.72457c-.26391-.01312-.53271-.03082-.80285-.05926C31.03647,44.69381,31.30447,44.71145,31.56875,44.72457Z"/><path class="cls-2" d="M32.35745,44.74587c-.179-.001-.36511-.00537-.55524-.01214C31.99338,44.74056,32.17758,44.74484,32.35745,44.74587Z"/><path class="cls-2" d="M30.83261,42.51846a27.72205,27.72205,0,0,1-3.06189-.8863v.37909l3.268.6717-.03521-.02582C30.946,42.61282,30.88974,42.56417,30.83261,42.51846Z"/><path class="cls-2" d="M32.8428,43.82949a.5096.5096,0,0,1-.08789.01587.487.487,0,0,1-.4541-.3125l-.00189-.005c-.11963-.07-.2395-.14057-.36078-.21729-.0506-.032-.10169-.06818-.15241-.10132a27.02164,27.02164,0,0,1-4.015-1.06134v.51471a25.47,25.47,0,0,0,5.14789,1.20416C32.893,43.85384,32.86856,43.8428,32.8428,43.82949Z"/><path class="cls-2" d="M27.55282,42.07113a2.36968,2.36968,0,0,1-.08984.48437c.09412.03357.19769.0694.30774.10712v-.51471C27.69266,42.12069,27.62094,42.09554,27.55282,42.07113Z"/><path class="cls-2" d="M27.55276,41.55428a3.34587,3.34587,0,0,1,.00916.414l.2088.043v-.37909C27.69375,41.60494,27.617,41.57772,27.55276,41.55428Z"/><path class="cls-2" d="M27.77072,42.01125v.13666a27.02164,27.02164,0,0,0,4.015,1.06134c-.24908-.16266-.49914-.33661-.747-.5263Z"/><path class="cls-2" d="M27.56192,41.96829c-.00147.03466-.00641.06848-.0091.10284.06812.02441.13984.04956.2179.07678v-.13666Z"/><path class="cls-2" d="M27.65921,12.12246l.00793.07147.00025-.06683Z"/><path class="cls-2" d="M32.30081,43.53286a.487.487,0,0,0,.4541.3125.5096.5096,0,0,0,.08789-.01587c-.17737-.09149-.35968-.19385-.54388-.30163Z"/><path class="cls-2" d="M25.43045,43.1636V41.40945a22.12972,22.12972,0,0,1-.26386-2.30579L21.56625,42.0975a7.28712,7.28712,0,0,1,2.22382.661A2.91082,2.91082,0,0,0,25.43045,43.1636Z"/><path class="cls-2" d="M25.43045,43.1636a1.67047,1.67047,0,0,0,.61743-.25379,1.11918,1.11918,0,0,0,.5257-.75628.48077.48077,0,0,1-.08625-.49762.47474.47474,0,0,1,.0929-.13971,8.62609,8.62609,0,0,0-.39075-1.52435,6.47551,6.47551,0,0,1-.35321-1.44507l-.66968.55688a22.12972,22.12972,0,0,0,.26386,2.30579Z"/><path class="cls-2" d="M26.58023,41.5162a.47474.47474,0,0,0-.0929.13971.48077.48077,0,0,0,.08625.49762A2.02024,2.02024,0,0,0,26.58023,41.5162Z"/><path class="cls-3" d="M54.24631,41.44021C53.90549,40.34933,53,37.4515,49.52347,37.4515q-.172,0-.35517.01007-.07753.00431-.15454.00427a10.30033,10.30033,0,0,1-3.742-1.28357l-.42719-.19628c-1.44195-.66095-4.18616-2.54712-4.25067-4.95508-.09082-3.38751-.00012-24.61017.00079-24.82416A2.3401,2.3401,0,0,0,39.41958,4.167c-.5119-.29389-5.12341-2.87116-9.34722-2.87116h-.00019c-.32037,0-.6358.015-.9375.04437a8.66394,8.66394,0,0,0-6.11334,3.54963,2.34013,2.34013,0,0,0-.39734,1.3908c.01672.46576.03931.91077.06061,1.36048a13.86987,13.86987,0,0,0-3.19928-.4148h-.00018c-.32038,0-.63581.015-.9375.04437a8.664,8.664,0,0,0-6.11335,3.54963,2.34013,2.34013,0,0,0-.39734,1.3908,85.91742,85.91742,0,0,0,3.31354,21.88337,25.03337,25.03337,0,0,1,.8161,3.45538,4.47032,4.47032,0,0,1-.684,3.07135,6.30608,6.30608,0,0,0-.91644,2.73138,19.38362,19.38362,0,0,0,.27722,3.98731V50.0342a2.34025,2.34025,0,0,0,1.652,2.23682,19.50569,19.50569,0,0,0,3.43836.65222,18.83426,18.83426,0,0,0,1.95752.09607c1.1632,0,2.05194-.09216,2.08923-.09607a2.34041,2.34041,0,0,0,1.8446-1.273,19.87075,19.87075,0,0,0,7.45734,1.28583c6.51666,0,9.509-2.91205,9.8288-3.24408a2.34031,2.34031,0,0,0,.548-2.32135c-.03345-.10712-.07452-.2356-.12079-.37311.11359.00134.2143.00806.33106.00806,6.51666,0,9.509-2.912,9.82873-3.244A2.34018,2.34018,0,0,0,54.24631,41.44021ZM29.96676,28.097a47.2382,47.2382,0,0,1,1.16816,8.51343l-.00013.00061.00013.00073c.009.39557.01159.78668.01159,1.19751a12.71586,12.71586,0,0,0,.17054,1.975,4.45724,4.45724,0,0,1-1.31019-2.82287C29.974,35.73373,29.96493,32.16073,29.96676,28.097ZM29.36191,3.66952c.23236-.02271.46984-.03333.70977-.03339l.01258.00049c.05835.00012.118.00592.17676.0072.184.00415.3684.01.55493.02545.08844.00733.17743.02051.26629.03022.15815.01721.31592.03393.47467.058.09943.01514.19843.03485.29779.05243.14881.02631.29706.052.44532.08331.10284.02173.20434.0467.3067.07062.14392.03357.28729.067.42969.10437.10357.02722.20513.05646.30761.08539.13886.03924.27686.07843.41333.12042.10108.03107.19983.06323.29938.09558.13477.04383.26788.08771.39929.13336.09662.03357.1908.06733.28534.10163.12915.04687.25574.09369.38062.14148.09106.03485.17968.06939.26819.10449.12152.04822.23931.09582.35553.144.084.03485.16619.06909.24719.10364.114.04864.223.09619.3305.14386.0744.033.14752.06531.21857.09753.106.04816.20489.094.30292.14.06268.02942.12512.05847.18432.08679.09534.04565.18171.08783.2674.13013.05139.02533.10364.05066.15143.07464.08209.04114.15313.07758.22387.114.04.02063.082.0418.11829.06073.069.036.12408.06536.17847.09448l.07245.03851c.053.02869.09.04913.12353.06769l.03711.02038.05267.02967s-.08581,19.82532-.0097,24.4176c-.011-.00012-.02063-.00476-.0318-.00421a1.88746,1.88746,0,0,0-1.80176,1.86426c0,.04547.00879.09515.01209.14215a6.47545,6.47545,0,0,0,.35315,1.44476c.46,1.41406.69824,2.38086-.14161,2.918-.74511.47852-1.25878.28906-2.25781-.15137a7.28637,7.28637,0,0,0-2.22351-.66089c-.01984-.00207-.04053-.003-.06048-.00488a58.12076,58.12076,0,0,0-1.46015-9.68091c-.22076-1.08239-.44214-2.38519-.65851-3.80865.01178-5.48779.0329-10.4325.03333-10.53522a2.34014,2.34014,0,0,0-1.17511-2.03973c-.07068-.04059-.2262-.12775-.44135-.24256-.34259-3.24865-.55871-5.602-.564-5.66192a.44755.44755,0,0,0-.04114-.13025A5.83154,5.83154,0,0,1,29.36191,3.66952ZM24.9628,6.19662a6.55865,6.55865,0,0,1,1.91742-1.70093c.05609.60205.22918,2.42847.48065,4.8407-.62537-.298-1.41113-.6416-2.29419-.96582C25.028,7.66128,24.98984,6.94985,24.9628,6.19662ZM18.77487,9.6c.23236-.02271.46985-.03333.70978-.03339l.01257.00049c.05835.00012.118.00592.17676.0072.184.00415.36841.01.55493.02546.08844.00732.17743.0205.2663.03021.15814.01721.31591.03393.47467.058.09942.01514.19842.03485.29779.05243.1488.02631.29706.052.44531.08331.10284.02173.20435.0467.3067.07062.14392.03357.28729.067.42969.10437.10358.02722.20514.05646.30762.08539l.068.01886.00006.001c.11554.03314.23145.06555.34528.10058.10107.03107.19983.06324.29937.09558.13446.0437.26813.08777.3993.13337.09661.03356.19079.06732.28534.10162.12878.04675.25616.09381.38061.14148.09107.03485.17969.0694.26819.10449q.18155.07206.35553.144l.0791.03321c.05621.02349.11328.047.16809.07043.114.04865.223.09619.33051.14386.0744.033.14752.06531.21856.09753.106.04816.2049.094.30292.14.06268.02942.12512.05847.18433.08679.09533.04566.1817.08783.26739.13013.05139.02533.10364.05066.15143.07464.08209.04114.15314.07758.22388.114.04.02063.082.04181.11828.06073.069.036.12409.06537.17847.09448l.07245.03851c.053.02869.09.04914.12353.06769l.03711.02039.0445.025.00818.00464-.00025.06683c-.003.70966-.02966,7.089-.03833,13.26465-.00653,4.65222-.00274,9.17981.02887,11.08655-.01123-.00018-.02124-.005-.03265-.00446a1.8867,1.8867,0,0,0-1.80078,1.86426c0,.04535.00879.095.012.14185a6.47551,6.47551,0,0,0,.35321,1.44507,8.62609,8.62609,0,0,1,.39075,1.52435,2.02024,2.02024,0,0,1-.00665.63733,1.11918,1.11918,0,0,1-.5257.75628,1.67047,1.67047,0,0,1-.61743.25379,2.91082,2.91082,0,0,1-1.64038-.40515,7.28712,7.28712,0,0,0-2.22382-.661c-.01971-.00208-.04028-.00293-.06018-.00482a58.12019,58.12019,0,0,0-1.46014-9.68091c-1.38282-6.77539-2.792-22.13379-2.80567-22.28809a.46261.46261,0,0,0-.0404-.13074A5.8318,5.8318,0,0,1,18.77487,9.6Zm-4.39911,2.5271a6.55833,6.55833,0,0,1,1.9176-1.70105c.176,1.88721,1.49738,15.79047,2.8014,22.17908,1.16931,5.72955,1.40673,7.8977,1.45324,9.93591l-.00012.00061.00012.00073c.009.39557.0116.78668.0116,1.19751a17.54225,17.54225,0,0,0,.88953,4.94989,26.47657,26.47657,0,0,1-4.26545-1.126v-.43109s-.1463-.76776-.23309-1.75494c-.03479-.39484-.05994-.82483-.0625-1.25482-.00128-.215.00311-.42993.01483-.64051a2.97271,2.97271,0,0,1,.307-1.10461c.05517-.11865.11548-.23761.17889-.35834.1015-.19323.21112-.39123.321-.60052.05493-.10468.11-.21216.16412-.32331a7.24521,7.24521,0,0,0,.30579-.71734c.04651-.12909.09021-.26349.13-.40393a6.04065,6.04065,0,0,0,.18445-.923,7.17871,7.17871,0,0,0,.04468-1.10949q-.01026-.304-.04486-.637C18.11966,33.74819,14.93735,27.758,14.37576,12.1271Zm9.3598,38.46869-.05914.00567-.03595.00324c-.05182.0047-.11774.01044-.21057.01739-.08331.00629-.18665.01294-.29828.0196l-.0968.00549c-.12561.0069-.25983.01349-.41077.0188-.14514.00513-.30383.00836-.46777.0105l-.13208.00122c-.0448.0003-.087.00128-.13287.00128-.03833,0-.08191-.00238-.12092-.00263-.17987-.001-.36413-.00531-.55535-.01214-.07837-.00281-.15357-.00519-.23328-.00916-.26434-.01312-.53241-.03076-.803-.05926a17.43119,17.43119,0,0,1-2.99512-.56159v-1.441a25.69676,25.69676,0,0,0,4.965,1.17694c.0069.00031.01239.00592.01929.00592l.01281-.00231c.52656.06414,1.05976.11175,1.59156.123Zm17.22889-3.67157c.02825.05261.05932.10077.08605.15631.04847.10083.0926.21124.13678.32135.01984.04944.04163.0943.0608.14551.0617.165.12036.33868.17742.52124,0,0-2.43353,2.52716-8.143,2.52716s-6.92621-1.77838-9.45337-1.77838l-.00574.10888c-.43249-.00872-.86767-.03936-1.30072-.087a17.5121,17.5121,0,0,1-.99237-5.09937c0-.23-.001-.45318-.00305-.67492a6.39933,6.39933,0,0,1,1.87122.58117,4.50134,4.50134,0,0,0,1.7998.51172c.07727,0,.15637-.00861.23523-.0166a2.55517,2.55517,0,0,0,1.13782-.41309A2.02242,2.02242,0,0,0,27.463,42.5555a2.36968,2.36968,0,0,0,.08984-.48437c.00269-.03436.00763-.06818.0091-.10284a3.34587,3.34587,0,0,0-.00916-.414,8.40406,8.40406,0,0,0-.44043-1.86322,5.1482,5.1482,0,0,1-.31738-1.28613.85737.85737,0,0,1,.69513-.85382,1.37575,1.37575,0,0,1,.218-.04309,7.31232,7.31232,0,0,0,2.38769,4.3717c.23828.22724.48615.438.73688.63874.05713.04571.1134.09436.1709.13867l.03521.02582c.24793.18969.498.3637.74708.52636.05072.03315.10174.06922.15234.10126.12128.07672.24115.14728.36078.21729.1842.10778.36651.21014.54388.30163.02576.01331.05023.02435.07581.03729.12329.06238.24573.123.36389.17719.26947.12353.52771.24274.77728.35718.06256.02874.12018.0542.18164.08227l.08863.04022c.15606.071.31359.14277.463.20911.08484.03766.16577.07135.24872.10742.14837.06446.29669.12879.43957.18756.08954.03687.17627.0691.264.10352.12915.05072.2583.10132.384.14648.09192.033.18238.06122.27283.09107.1181.039.23614.07751.35223.11078.09052.02588.18061.04712.27021.06933.11346.02814.22674.05518.33929.07709.09009.01752.18066.0307.27045.04407.1109.01642.2218.03094.33282.04071.09088.008.1828.01208.27417.01538.06189.00226.12311.01044.1853.01044.09443,0,.18909-.00257.28449-.00788l.00122-.00006a3.4802,3.4802,0,0,1,.40991.00867c.08435.00482.16974.009.24768.02a2.35541,2.35541,0,0,1,.25946.05493c.07007.01788.142.03418.20661.0578a3.59343,3.59343,0,0,1,.38971.19385,1.83825,1.83825,0,0,1,.18725.14911c.046.03973.09491.07623.13739.12042a2.28115,2.28115,0,0,1,.16144.19763c.03644.04773.076.09168.10993.14319.03179.04822.059.10413.0888.15558l.00214.00024C40.93039,46.86062,40.94736,46.89254,40.96445,46.92422Zm11.04809-4.786a4.18938,4.18938,0,0,1-.46942.39483c-.15869.11847-.3587.25666-.60162.40473a10.07177,10.07177,0,0,1-1.38886.69964,12.16368,12.16368,0,0,1-1.26453.44178,14.02151,14.02151,0,0,1-1.54693.3529,17.04985,17.04985,0,0,1-2.87164.23322c-.63306,0-1.20289-.02478-1.7334-.06366A4.3643,4.3643,0,0,0,38.93637,43.382c-.11462,0-.23322.00324-.35516.01007q-.07764.00431-.15455.00428a10.30068,10.30068,0,0,1-3.74194-1.28357l-.42718-.19629A9.85894,9.85894,0,0,1,32.5231,40.866a13.854,13.854,0,0,1-.40588-3.05676c0-.23-.001-.45319-.00306-.67493a6.399,6.399,0,0,1,1.87122.58118,4.506,4.506,0,0,0,1.7998.51172,2.49266,2.49266,0,0,0,1.37305-.42969c1.53418-.98242.96094-2.748.541-4.03613a5.16352,5.16352,0,0,1-.31739-1.28711.93364.93364,0,0,1,.91321-.89679c.0058.051.0058.10388.013.15442a5.88032,5.88032,0,0,0,.30652,1.20733,6.78265,6.78265,0,0,0,.53082,1.10974,8.57092,8.57092,0,0,0,1.109,1.46717,11.89334,11.89334,0,0,0,3.61512,2.59735c.26635.12207.52063.23944.76751.35272.08191.0376.15741.07117.23737.10761.17041.07769.34015.155.50262.22717.09052.04022.17591.07574.26422.11407.14344.06226.287.12458.4253.18146.09216.0379.18072.07092.27093.10626.12726.04993.25452.0998.37836.14429.09289.03339.18341.06158.27478.09167.11737.0387.23462.07709.34991.11011.09168.02631.18232.04755.27308.07007.11254.02789.22491.05469.33654.07648.09107.01776.182.031.27277.04443.11005.01636.22015.0307.33032.04041.09186.00811.18408.01226.27637.01556.06146.0022.12231.01032.18414.01032q.14154,0,.28449-.00788.116-.0064.22522-.00641c.06756,0,.12323.01148.18695.01514.0838.00476.16858.00891.24609.01984a2.38419,2.38419,0,0,1,.261.05529c.06958.01783.14111.034.20532.05744a1.88235,1.88235,0,0,1,.22021.10223,1.21805,1.21805,0,0,1,.35669.24054c.04615.03986.09528.07642.13788.12079a2.27348,2.27348,0,0,1,.16095.19708c.03662.04785.07617.09192.11023.14362.05084.07715.09625.16376.14221.249.02851.053.0597.1015.08661.15747.04791.09967.09162.209.13532.31781.02038.05054.04266.09662.06231.14911.06006.16077.11719.3302.17279.50757l.00452.01337Z"/></svg>