<svg id="Layer_1" data-name="Layer 1" xmlns="http://www.w3.org/2000/svg" viewBox="0 0 59.5 55.65481"><defs><style>.cls-1{fill:#fff;}.cls-2{fill:#2e9bb9;}</style></defs><title>icon-hcc</title><path class="cls-1" d="M43.86167,7.95349,38.00644,6.8337c-2.00313,5.89689-13.28214,5.93932-15.10382,0L17.04739,7.95349,5.90122,19.34381l6.97013,6.84434,4.52933-3.53533,1.17874,27.56472H42.32965l1.17873-27.56472,4.52933,3.53533,6.15418-6.84434Z"/><path class="cls-2" d="M38.00644,6.83368l5.85522,1.11981,10.3302,11.39032-6.15417,6.84433-4.5293-3.53531-1.17877,27.5647H18.57944l-1.17878-27.5647-4.52929,3.53531L5.90121,19.34381,17.04739,7.95349l5.85523-1.11981c.90924,2.9646,4.174,4.4386,7.46612,4.4386,3.30341,0,6.6344-1.48511,7.6377-4.4386M22.90433,4.49307a2.34371,2.34371,0,0,0-.44135.042L16.60776,5.65485a2.34051,2.34051,0,0,0-1.233.6618L4.22854,17.707a2.34033,2.34033,0,0,0,.033,3.30667L11.23166,27.858a2.34027,2.34027,0,0,0,3.07971.175l.94537-.73791.9845,23.02246a2.34035,2.34035,0,0,0,2.3382,2.24029H42.32962a2.34034,2.34034,0,0,0,2.33819-2.24029l.9845-23.02246.94537.73791a2.34014,2.34014,0,0,0,3.18024-.28006L55.9321,20.9086a2.3403,2.3403,0,0,0-.00666-3.137L45.59524,6.38129a2.34047,2.34047,0,0,0-1.29394-.72644L38.44607,4.535A2.33841,2.33841,0,0,0,35.7905,6.08093c-.669,1.96949-3.20514,2.851-5.42176,2.851-2.17749,0-4.63873-.861-5.2287-2.78455a2.34112,2.34112,0,0,0-2.23571-1.65436Z"/></svg>